<?xml version="1.0" standalone="no"?>
<!DOCTYPE svg PUBLIC "-//W3C//DTD SVG 20010904//EN"
 "http://www.w3.org/TR/2001/REC-SVG-20010904/DTD/svg10.dtd">
<svg version="1.0" xmlns="http://www.w3.org/2000/svg"
 width="1092.000000pt" height="1092.000000pt" viewBox="0 0 1092.000000 1092.000000"
 preserveAspectRatio="xMidYMid meet">
<metadata>
Created by potrace 1.14, written by Peter Selinger 2001-2017
</metadata>
<g transform="translate(0.000000,1092.000000) scale(0.100000,-0.100000)"
fill="#000000" stroke="none">
<path d="M10910 5821 l0 -5099 -57 15 c-32 8 -74 24 -93 37 -19 12 -70 39
-112 60 -43 20 -90 48 -105 60 -32 27 -84 54 -244 129 -64 30 -142 71 -175 92
-32 21 -102 59 -154 85 -52 26 -124 67 -160 92 -36 24 -72 47 -80 51 -8 4 -37
20 -65 36 -27 15 -104 56 -170 90 -133 69 -323 181 -377 224 -20 15 -103 62
-184 104 -403 205 -461 242 -498 310 -30 55 -83 93 -170 123 -33 11 -86 42
-122 71 -75 60 -119 78 -189 79 -63 0 -151 23 -175 45 -29 26 -38 91 -51 375
-8 189 -9 313 -1 432 11 191 13 197 132 383 172 269 266 536 305 872 16 140
25 160 86 199 94 59 131 120 148 244 6 41 26 127 45 190 51 170 66 257 77 440
5 91 14 194 18 230 5 36 8 144 7 240 -1 159 -3 179 -23 220 -32 64 -29 101 16
194 51 104 66 127 122 185 34 36 51 65 69 119 44 135 84 181 108 126 10 -21
15 -24 27 -14 8 7 15 19 15 26 0 8 13 17 29 20 23 5 35 17 50 49 11 24 23 54
26 68 10 37 42 64 58 48 14 -14 17 -223 4 -363 -9 -109 6 -116 23 -10 20 123
24 337 11 557 -11 184 -11 209 4 263 30 105 19 179 -44 308 -29 60 -59 116
-66 124 -18 20 -48 101 -90 243 -20 66 -52 149 -72 185 -39 72 -152 258 -186
307 -43 61 -167 201 -210 237 -41 34 -130 130 -279 300 -35 40 -74 74 -102 87
-25 11 -69 46 -98 76 -97 103 -272 205 -493 288 -129 49 -178 60 -234 55 -28
-3 -55 -2 -61 2 -7 4 -17 50 -24 102 -14 108 -33 148 -72 148 -21 0 -25 -4
-20 -17 4 -9 9 -51 12 -93 6 -87 -8 -117 -49 -106 -30 7 -37 37 -37 147 0 106
-15 123 -125 144 -44 8 -109 15 -145 15 -56 0 -86 8 -195 51 -129 50 -130 51
-263 54 -90 3 -142 9 -160 19 -156 82 -202 97 -272 84 -72 -13 -112 -35 -192
-106 -67 -60 -99 -79 -117 -67 -5 3 -30 0 -54 -7 -39 -10 -47 -9 -61 4 -9 9
-16 21 -16 27 0 5 -5 13 -11 17 -9 5 -10 -1 -5 -20 9 -35 -9 -41 -65 -22 -24
9 -54 16 -67 16 -12 0 -51 9 -85 21 -62 21 -85 22 -239 4 -25 -3 -59 0 -74 5
-26 10 -26 11 -9 30 10 11 13 20 8 20 -6 0 -16 -7 -23 -16 -34 -40 -99 -48
-146 -17 -11 7 -59 27 -105 44 -70 26 -100 32 -178 33 -67 1 -95 -3 -98 -11
-3 -9 -14 -11 -30 -7 -19 5 -24 4 -18 -5 5 -9 1 -12 -11 -11 -11 1 -21 1 -24
0 -3 -1 -12 -3 -20 -5 -8 -1 -38 -12 -65 -23 -44 -17 -66 -19 -180 -15 -125 5
-133 4 -225 -27 -52 -17 -124 -49 -160 -72 -36 -23 -112 -70 -170 -106 -58
-35 -112 -71 -120 -79 -13 -14 -13 -15 0 -8 8 5 27 17 42 27 38 26 45 22 17
-8 -27 -30 -166 -124 -182 -124 -5 0 -2 10 9 21 10 12 -21 -8 -71 -45 -49 -36
-101 -69 -115 -73 -14 -3 -52 -29 -85 -57 -33 -29 -103 -86 -156 -129 -53 -42
-122 -108 -155 -147 -70 -84 -95 -126 -33 -55 90 102 108 120 113 114 3 -3
-12 -30 -35 -60 -38 -51 -83 -126 -62 -104 6 6 29 37 53 69 53 73 109 136 122
136 5 0 42 34 83 75 41 41 80 75 87 75 6 0 9 -2 7 -5 -2 -2 -49 -51 -105 -107
-69 -71 -133 -151 -204 -256 -58 -85 -106 -149 -108 -143 -2 6 10 41 27 77 17
35 26 62 22 59 -16 -10 -90 -191 -126 -310 -20 -66 -42 -168 -50 -227 -7 -59
-16 -111 -19 -117 -4 -5 0 -51 9 -101 l14 -92 -35 -66 c-20 -37 -51 -94 -69
-127 -92 -161 -147 -398 -161 -685 -13 -257 53 -524 161 -655 67 -80 105 -120
105 -109 0 6 -10 19 -21 30 -38 34 -109 141 -144 217 -73 158 -97 347 -76 587
19 205 54 346 101 402 l19 23 1 -48 c0 -26 7 -59 16 -72 9 -13 14 -30 12 -36
-2 -6 11 -27 29 -45 18 -19 33 -38 33 -42 0 -4 -20 -18 -45 -31 -49 -26 -55
-38 -11 -21 43 16 65 -12 31 -40 -10 -8 -12 -18 -6 -29 5 -9 11 -86 15 -171 7
-168 23 -290 39 -290 6 0 8 30 4 79 -2 43 0 100 5 127 6 27 10 59 9 72 0 12 3
22 8 22 5 0 12 -28 15 -62 12 -103 50 -236 100 -349 52 -119 125 -219 239
-331 49 -48 57 -60 51 -82 -7 -28 4 -34 24 -14 9 9 12 7 12 -9 0 -12 5 -25 10
-28 6 -4 8 -16 4 -28 -13 -39 -12 -77 3 -77 19 0 17 -64 -3 -81 -18 -15 -51
-74 -36 -65 16 10 25 -12 24 -62 -2 -56 11 -73 47 -66 52 11 62 -26 46 -170
-5 -49 -4 -66 4 -62 6 4 11 16 11 26 0 10 4 21 8 24 4 2 9 19 10 36 3 35 28
90 41 90 4 0 18 -11 31 -25 12 -13 27 -22 31 -19 5 3 9 2 10 -3 2 -18 8 -53
23 -137 9 -49 16 -109 16 -135 0 -25 5 -62 10 -82 6 -20 11 -94 13 -163 1 -69
5 -126 8 -126 9 0 0 -87 -13 -128 -7 -24 -7 -37 2 -47 7 -8 10 -21 7 -28 -3
-8 -2 -51 2 -96 4 -45 4 -84 0 -87 -4 -2 -5 -20 -2 -39 3 -19 1 -40 -4 -47
-10 -14 -9 -113 3 -163 3 -16 7 -48 8 -70 0 -22 4 -43 9 -46 4 -3 14 -64 22
-135 37 -322 86 -510 206 -789 17 -38 35 -79 41 -90 6 -10 21 -37 32 -60 64
-118 127 -220 190 -304 l41 -54 0 -211 c0 -226 -4 -259 -61 -496 -46 -192 -42
-185 -106 -200 -122 -28 -242 -108 -300 -200 -26 -41 -82 -86 -245 -195 -28
-19 -70 -39 -93 -44 -23 -5 -68 -25 -100 -45 -32 -20 -62 -36 -67 -36 -4 0
-55 -29 -113 -65 -58 -35 -153 -89 -211 -119 -114 -59 -224 -130 -279 -180
-54 -49 -104 -80 -250 -150 -52 -26 -106 -52 -120 -59 -14 -7 -47 -25 -75 -39
-112 -57 -384 -188 -444 -213 -84 -35 -225 -105 -276 -137 -22 -14 -80 -37
-130 -52 -385 -119 -486 -157 -648 -246 l-136 -75 -1 -257 0 -258 5460 0 5460
0 0 5460 c0 3003 -2 5460 -5 5460 -3 0 -5 -2295 -5 -5099z m-5019 4433 c30 -8
61 -24 71 -35 9 -10 23 -19 32 -19 9 0 16 -4 16 -10 0 -5 -24 -10 -52 -10 -44
1 -59 6 -88 30 -36 32 -70 37 -117 19 -21 -8 -25 -7 -17 1 10 10 78 38 95 40
3 0 30 -7 60 -16z m-1565 -43 c-3 -5 -30 -15 -58 -22 -29 -7 -71 -20 -93 -30
-22 -10 -53 -18 -70 -18 l-30 0 24 17 c33 23 94 42 166 51 33 5 61 9 63 10 2
0 1 -3 -2 -8z m1724 -49 c0 -15 -67 -31 -79 -19 -20 20 -11 27 34 27 25 0 45
-4 45 -8z m-2085 -42 c3 -5 -9 -16 -26 -25 -29 -16 -55 -21 -119 -28 -14 -1
-27 -5 -30 -9 -3 -3 -54 -8 -114 -10 l-108 -3 48 22 c27 12 64 22 82 22 17 1
32 5 32 10 0 21 222 41 235 21z m65 -14 c0 -2 -7 -7 -16 -10 -8 -3 -12 -2 -9
4 6 10 25 14 25 6z m2110 -31 c0 -2 -9 -9 -20 -15 -22 -12 -44 -5 -35 11 6 9
55 13 55 4z m-2400 -59 c0 -3 -18 -15 -40 -27 -22 -13 -40 -27 -40 -33 0 -7
-4 -6 -8 1 -6 10 -17 8 -47 -9 -22 -11 -53 -24 -70 -28 -16 -4 -64 -17 -105
-29 l-75 -21 29 24 c33 26 161 93 216 113 33 11 140 18 140 9z m10 -51 c-7 -8
-18 -15 -24 -15 -6 0 -2 7 8 15 25 19 32 19 16 0z m-375 -145 c-3 -5 -12 -10
-19 -10 -7 0 -21 -7 -32 -15 -18 -14 -18 -14 4 -8 42 10 22 -15 -25 -33 -27
-10 -50 -21 -53 -24 -14 -16 -63 -41 -68 -34 -4 4 -2 9 5 11 27 10 62 45 57
57 -7 17 15 34 67 50 55 17 72 19 64 6z m145 0 c0 -5 -8 -10 -17 -10 -15 0
-16 2 -3 10 19 12 20 12 20 0z m-416 -125 c-18 -14 -44 -20 -44 -10 0 7 54 34
59 29 3 -2 -4 -11 -15 -19z m200 -30 c-4 -8 -14 -15 -23 -15 -14 1 -13 3 3 15
25 19 27 19 20 0z m-244 -5 c0 -5 -5 -10 -12 -10 -6 0 -9 -3 -6 -6 4 -3 16 -1
27 6 28 15 27 -1 -3 -29 l-23 -22 -6 28 c-3 15 -3 31 0 35 6 11 23 10 23 -2z
m-45 -57 c0 -14 -30 -44 -100 -96 -85 -64 -186 -155 -147 -133 28 16 1 -39
-84 -169 -34 -53 -112 -286 -137 -412 -13 -67 -18 -76 -66 -119 -28 -25 -51
-52 -51 -60 0 -8 21 7 47 33 l48 48 3 -34 c6 -55 -6 -78 -52 -110 -32 -23 -46
-27 -55 -18 -8 8 -11 7 -11 -5 0 -9 5 -20 10 -23 14 -8 3 -43 -21 -68 -17 -19
-19 -19 -25 -3 -4 10 -4 86 -2 169 5 137 8 161 37 246 48 142 116 264 220 395
29 37 62 71 73 77 11 6 17 17 14 25 -6 17 149 174 171 174 7 0 13 5 13 11 0 5
-4 7 -10 4 -28 -17 -3 9 46 50 59 48 79 52 79 18z m119 -17 c-3 -9 -13 -16
-22 -16 -13 0 -12 3 3 20 20 23 29 21 19 -4z m-48 -62 c-11 -7 -22 -11 -25 -8
-3 3 3 12 13 20 11 7 22 11 25 8 3 -3 -3 -12 -13 -20z m28 -71 c-25 -33 -44
-40 -44 -17 0 25 41 67 54 54 7 -7 3 -19 -10 -37z m3499 32 c3 -15 -50 -18
-55 -3 -4 9 4 13 23 13 16 0 30 -4 32 -10z m-3646 -42 c-17 -30 -137 -140
-137 -125 0 13 141 164 147 158 2 -2 -2 -17 -10 -33z m77 -61 c3 -5 -13 -26
-34 -47 -47 -46 -54 -31 -9 20 34 38 35 39 43 27z m-174 -97 c0 -3 -12 -24
-26 -46 -14 -23 -46 -79 -71 -126 -24 -47 -49 -93 -53 -102 -5 -9 -23 -51 -41
-93 -33 -82 -49 -98 -49 -48 0 48 43 159 94 240 67 108 146 203 146 175z m-99
-58 c-13 -12 -20 -15 -16 -7 14 26 28 41 33 35 3 -3 -5 -16 -17 -28z m2246 1
c-3 -8 -6 -5 -6 6 -1 11 2 17 5 13 3 -3 4 -12 1 -19z m-47 -18 c0 -5 -5 -10
-11 -10 -5 0 -7 5 -4 10 3 6 8 10 11 10 2 0 4 -4 4 -10z m-23 -57 c-3 -10 -5
-4 -5 12 0 17 2 24 5 18 2 -7 2 -21 0 -30z m2137 -39 c3 -8 2 -12 -4 -9 -6 3
-10 10 -10 16 0 14 7 11 14 -7z m101 -64 c3 -5 1 -10 -4 -10 -6 0 -11 5 -11
10 0 6 2 10 4 10 3 0 8 -4 11 -10z m-4610 -369 c8 -37 -3 -81 -21 -81 -15 0
-19 46 -8 88 9 30 21 28 29 -7z m2436 -211 c11 0 18 -3 16 -8 -8 -11 57 -8 66
3 4 6 7 1 5 -10 -2 -15 3 -21 22 -22 22 -2 23 -2 5 6 -17 7 -16 9 13 13 17 2
32 1 32 -4 0 -4 -5 -8 -12 -8 -6 0 -9 -2 -6 -5 3 -3 17 -1 32 4 17 7 26 7 26
1 0 -6 9 -10 19 -10 10 0 21 -7 25 -15 3 -8 11 -15 18 -15 9 0 8 3 -2 10 -13
8 -12 10 4 10 16 0 15 3 -8 21 -15 11 -33 19 -40 16 -20 -8 -51 17 -41 33 6
10 10 9 17 -3 7 -13 14 -14 34 -7 27 11 44 6 44 -11 0 -6 -5 -7 -12 -3 -7 4
-8 3 -4 -4 4 -6 13 -9 21 -6 8 4 13 9 11 13 -6 10 66 8 81 -2 16 -10 94 8 104
25 5 7 9 10 9 6 0 -3 3 -14 7 -24 5 -13 3 -16 -9 -11 -10 3 -19 0 -22 -9 -4
-11 1 -14 17 -13 42 4 59 -1 54 -14 -6 -16 52 -20 102 -7 39 11 73 -3 65 -25
-4 -10 5 -16 30 -20 27 -6 32 -10 23 -19 -6 -7 -19 -11 -29 -8 -10 2 -26 1
-35 -3 -17 -7 -16 -8 2 -15 11 -5 37 -6 58 -3 24 4 37 2 37 -6 0 -6 -11 -11
-25 -11 -14 0 -25 -5 -25 -10 0 -6 6 -10 13 -9 6 1 24 -1 40 -4 72 -18 77 -18
78 0 0 11 3 13 6 6 2 -7 21 -13 41 -13 23 0 32 -3 24 -9 -10 -6 -10 -10 2 -21
9 -7 13 -17 10 -22 -4 -6 14 -9 47 -8 100 4 112 2 106 -20 -3 -13 0 -20 10
-20 8 0 12 -4 8 -9 -3 -5 -1 -12 5 -16 6 -4 8 -10 5 -15 -3 -5 6 -12 20 -16
15 -4 25 -13 25 -24 0 -10 6 -21 13 -23 9 -4 8 -8 -3 -16 -13 -10 -13 -12 0
-21 8 -5 22 -10 31 -10 21 0 31 -24 16 -39 -9 -9 -9 -16 1 -31 13 -22 2 -33
-25 -24 -13 4 -12 1 6 -14 13 -10 21 -24 18 -29 -4 -6 1 -10 10 -9 9 0 18 -5
21 -13 3 -9 0 -11 -8 -6 -10 6 -11 2 -6 -16 13 -44 11 -53 -14 -59 l-25 -7 28
-8 c16 -4 26 -13 24 -19 -2 -6 -8 -22 -12 -36 l-7 -25 17 23 c12 17 20 20 34
12 10 -5 22 -6 26 -2 5 4 6 0 3 -8 -3 -8 -1 -26 3 -39 8 -19 14 -22 36 -16 22
5 25 4 15 -8 -9 -11 -8 -18 8 -32 20 -19 28 -41 10 -30 -5 3 -10 1 -10 -6 0
-8 -11 -10 -35 -6 -19 3 -35 2 -35 -2 0 -5 -12 -6 -27 -3 -24 4 -25 3 -12 -10
8 -9 19 -13 24 -10 6 3 6 1 2 -4 -5 -5 -11 -8 -13 -6 -3 1 -11 -4 -20 -12 -9
-9 -32 -15 -58 -14 -23 0 -53 -5 -65 -11 -14 -8 -55 -11 -119 -7 -54 2 -113 1
-132 -3 -34 -8 -32 -8 25 -15 33 -4 69 -11 80 -15 11 -4 60 -5 108 -2 54 4 92
2 98 -4 6 -6 13 -5 19 5 8 12 10 12 11 -5 5 -66 4 -70 -23 -67 -14 2 -29 -2
-33 -7 -3 -7 2 -11 14 -11 12 0 21 -4 21 -9 0 -5 -16 -8 -35 -7 -25 2 -35 -1
-35 -11 0 -8 4 -11 10 -8 6 3 7 -1 4 -9 -3 -9 -10 -14 -14 -11 -5 3 -10 0 -12
-6 -2 -7 -22 -14 -43 -16 -22 -2 -42 -8 -45 -13 -6 -10 -95 -29 -135 -30 -11
0 -93 -3 -182 -6 -145 -5 -200 -2 -353 20 -19 3 -1 -3 40 -14 97 -26 597 -59
584 -38 -6 9 112 21 126 13 6 -4 18 -1 27 7 15 11 16 11 10 -5 -6 -15 -4 -16
13 -7 16 9 20 8 20 -7 0 -13 3 -14 12 -5 16 16 28 15 28 -2 0 -8 9 -18 20 -21
11 -3 20 -11 20 -16 0 -5 8 -10 18 -10 16 -1 16 -2 0 -6 -22 -5 -24 -23 -3
-23 8 0 15 -4 15 -10 0 -5 -8 -7 -17 -3 -13 4 -11 -1 7 -19 14 -14 27 -24 30
-23 3 2 14 -3 25 -11 15 -11 16 -14 3 -14 -11 0 -15 -6 -11 -20 3 -11 12 -20
19 -20 8 0 14 -9 14 -21 0 -12 4 -17 11 -13 6 3 23 -6 39 -21 16 -15 33 -24
39 -21 6 4 11 1 11 -7 0 -17 21 -27 59 -27 29 0 77 -42 67 -58 -3 -6 1 -12 9
-15 9 -4 12 -1 9 7 -3 7 2 16 10 19 10 4 22 -6 36 -28 22 -36 20 -55 -6 -55
-8 0 -12 -4 -9 -10 7 -11 -39 -24 -60 -16 -8 3 -14 2 -14 -2 3 -19 -2 -23 -16
-12 -9 8 -15 8 -15 2 0 -6 -19 -11 -42 -12 -24 0 -58 -2 -77 -4 -50 -4 -147
17 -214 47 -32 14 -55 22 -52 17 9 -15 128 -79 178 -96 33 -11 44 -20 40 -30
-3 -8 -12 -13 -20 -10 -8 3 -11 1 -8 -4 9 -15 -18 -12 -61 6 -33 14 -36 14
-26 1 7 -8 9 -17 5 -19 -4 -3 -3 -4 2 -3 19 4 56 -15 50 -25 -4 -7 -12 -7 -25
0 -10 5 -32 10 -48 10 -16 0 -32 3 -36 8 -10 10 -30 9 -37 -1 -8 -11 -74 -12
-111 -2 -19 5 -28 4 -28 -4 0 -7 5 -9 10 -6 6 3 10 1 10 -6 0 -7 -9 -9 -22 -6
-15 4 -33 -2 -54 -18 -18 -14 -39 -25 -48 -25 -24 0 -46 -11 -40 -21 3 -5 -2
-9 -10 -9 -10 0 -13 -6 -10 -15 4 -8 1 -15 -5 -15 -6 0 -11 -7 -11 -16 0 -9
-9 -18 -19 -21 -20 -5 -38 -33 -22 -33 5 0 12 6 14 13 4 9 6 9 6 0 1 -17 -52
-43 -81 -41 -20 2 -23 8 -26 47 -2 24 -7 52 -12 60 -7 11 -8 -11 -5 -61 2 -43
0 -78 -5 -78 -4 0 -18 12 -30 28 -15 19 -18 21 -11 5 14 -27 -3 -41 -19 -16
-9 15 -10 12 -6 -15 3 -18 2 -31 -3 -28 -11 7 -1 -45 11 -61 6 -7 14 -11 18
-8 5 3 11 -4 15 -15 6 -20 35 -28 35 -10 0 6 -5 10 -11 10 -5 0 -7 5 -4 10 3
6 -6 15 -21 20 -20 8 -24 14 -16 22 9 9 16 7 30 -5 24 -22 35 -21 29 2 -3 12
1 21 12 24 23 5 41 -2 41 -18 0 -18 21 -24 42 -13 13 6 16 5 12 -6 -3 -8 -14
-13 -24 -11 -14 3 -22 -5 -30 -31 -13 -38 -31 -46 -27 -13 1 12 -3 24 -9 26
-6 2 -10 -8 -9 -25 2 -29 1 -29 -41 -24 -37 4 -43 2 -49 -19 -5 -14 -3 -25 3
-27 6 -2 -9 -32 -33 -67 -24 -35 -41 -66 -37 -69 3 -3 0 -6 -7 -6 -7 0 -9 -4
-6 -10 3 -5 0 -10 -8 -10 -21 0 -50 -37 -41 -52 5 -7 7 -21 6 -30 -2 -10 2
-18 8 -18 7 0 9 -7 6 -17 -4 -10 1 -23 14 -35 22 -21 26 -38 9 -38 -7 0 -9 -9
-5 -24 3 -13 -1 -37 -9 -52 -13 -25 -13 -29 1 -37 13 -7 13 -11 2 -25 -11 -14
-10 -15 6 -9 28 11 77 -14 70 -35 -3 -12 0 -18 10 -18 24 0 19 -26 -5 -27 -25
-2 -25 -2 -33 -30 -6 -17 -3 -23 8 -23 9 0 16 -8 16 -17 0 -9 3 -13 6 -10 4 4
19 -2 34 -13 16 -11 39 -20 52 -19 23 0 23 0 2 9 -12 5 -25 13 -28 19 -4 7 -1
8 8 5 23 -9 19 12 -5 30 -11 8 -19 21 -17 30 2 13 11 11 48 -14 40 -26 46 -28
61 -14 17 15 60 7 74 -15 10 -16 45 -13 45 4 0 8 6 15 13 15 9 0 8 3 -2 9 -10
7 -11 13 -2 30 7 11 10 21 9 22 -2 0 -13 2 -24 3 -27 3 -52 27 -46 44 2 6 -2
12 -8 12 -7 0 -9 8 -5 20 5 17 2 20 -22 21 -27 0 -27 1 -6 11 19 9 26 7 42
-13 10 -13 25 -24 33 -25 7 0 23 -2 35 -2 15 -2 21 -7 17 -17 -6 -16 1 -18 51
-17 20 1 25 -2 15 -8 -11 -7 -11 -13 4 -35 18 -27 18 -27 -6 -21 -22 7 -22 6
2 -8 28 -17 64 -21 55 -7 -3 5 -1 12 5 16 6 3 13 0 15 -8 6 -14 32 -16 53 -3
6 4 12 3 12 -2 0 -4 15 -9 33 -9 17 0 59 -4 92 -8 52 -7 95 -7 243 -1 17 0 32
4 32 9 0 4 -4 7 -10 7 -5 0 4 13 20 29 32 30 26 41 -23 41 -18 0 -19 2 -7 10
13 8 12 10 -3 10 -10 0 -16 4 -12 9 3 5 -3 12 -12 14 -10 3 9 6 42 7 33 1 74
4 90 7 17 2 44 5 62 5 18 1 30 4 28 8 -2 3 24 4 58 2 34 -3 64 -8 65 -13 2 -5
19 -9 38 -9 24 0 34 -5 34 -15 0 -16 30 -20 46 -6 5 5 26 12 46 15 30 6 40 3
49 -12 10 -16 20 -18 57 -14 32 4 43 2 38 -7 -4 -6 -14 -11 -23 -11 -23 0 -7
-13 20 -16 12 -2 38 -5 57 -8 19 -2 38 -5 43 -5 4 -1 7 -8 7 -16 0 -8 7 -15
15 -15 8 0 15 -6 15 -12 0 -9 4 -8 10 2 6 10 10 11 10 3 0 -7 9 -22 20 -33 25
-25 26 -50 3 -50 -12 0 -14 -3 -6 -8 6 -4 14 -19 18 -33 5 -20 1 -32 -17 -49
-16 -15 -19 -24 -10 -27 13 -5 17 -33 4 -33 -4 0 -13 5 -20 12 -9 9 -12 8 -12
-6 0 -9 -4 -14 -10 -11 -5 3 -10 2 -10 -4 0 -5 5 -11 12 -13 7 -3 6 -7 -5 -11
-11 -4 -17 -1 -17 7 0 22 -46 17 -47 -5 -1 -11 2 -19 8 -19 5 0 9 -4 9 -10 0
-5 -7 -10 -15 -10 -17 0 -20 -16 -5 -25 6 -4 9 -19 7 -35 -3 -18 1 -33 14 -44
21 -17 26 -46 8 -46 -8 0 -9 -13 -5 -41 4 -26 3 -38 -4 -34 -17 10 -12 -71 5
-85 17 -14 21 -35 5 -25 -5 3 -10 1 -10 -4 0 -6 4 -11 9 -11 5 0 7 -9 4 -20
-3 -12 2 -29 11 -39 13 -15 14 -23 5 -50 -8 -24 -8 -35 1 -46 6 -8 9 -19 5
-25 -4 -6 -1 -18 6 -26 6 -8 10 -17 7 -20 -3 -2 0 -21 7 -42 9 -24 10 -43 4
-54 -7 -13 -6 -18 3 -18 9 0 9 -3 0 -12 -8 -8 -8 -19 2 -43 12 -27 15 -86 6
-105 -1 -3 -2 -14 -1 -25 2 -17 0 -17 -8 -5 -7 9 -11 10 -11 3 0 -6 4 -14 9
-17 5 -4 5 -20 -2 -41 -7 -26 -7 -45 2 -76 9 -30 9 -44 1 -54 -8 -10 -8 -15 1
-21 9 -5 7 -10 -5 -20 -15 -10 -16 -16 -6 -34 9 -16 9 -25 1 -33 -6 -6 -11
-30 -11 -53 0 -26 -6 -47 -16 -55 -8 -7 -13 -21 -11 -31 4 -12 0 -18 -12 -18
-10 0 -24 -12 -32 -27 -8 -16 -18 -31 -24 -35 -6 -5 -5 -8 3 -8 6 0 12 -5 12
-11 0 -6 -9 -9 -20 -6 -25 6 -36 -8 -14 -17 9 -4 14 -9 10 -13 -6 -6 -77 -14
-128 -14 -10 0 -18 -5 -18 -11 0 -6 -3 -9 -6 -5 -9 9 -44 -26 -44 -45 0 -10
-4 -18 -10 -18 -5 0 -10 -9 -10 -20 0 -11 -18 -38 -39 -59 -29 -29 -38 -45
-34 -60 3 -12 1 -21 -6 -21 -6 0 -11 -16 -11 -34 0 -31 -36 -89 -54 -87 -20 3
-26 0 -21 -8 3 -5 1 -12 -5 -16 -6 -4 -8 -11 -5 -16 4 -5 -1 -9 -9 -9 -11 0
-16 -9 -16 -30 0 -16 -4 -30 -9 -30 -5 0 -11 -9 -14 -20 -3 -11 -12 -20 -20
-20 -9 0 -18 -9 -22 -19 -7 -24 -85 -110 -85 -94 0 17 -41 3 -48 -18 -11 -28
-91 -82 -114 -76 -14 4 -18 2 -14 -9 3 -8 -1 -14 -10 -14 -8 0 -22 -16 -30
-35 -8 -19 -38 -60 -67 -91 -28 -31 -57 -65 -63 -76 -7 -12 -14 -16 -18 -10
-3 6 -1 12 5 14 7 2 10 10 7 18 -3 9 -12 0 -27 -23 -12 -20 -27 -37 -32 -37
-6 0 -7 5 -3 12 5 8 2 9 -10 5 -14 -5 -15 -3 -6 13 6 10 19 25 30 33 11 8 17
17 12 22 -4 4 6 5 22 1 25 -6 27 -5 13 8 -8 9 -12 25 -10 40 4 19 1 26 -10 26
-8 0 -14 8 -13 17 0 12 -7 19 -21 21 -13 2 -23 -1 -23 -7 0 -6 5 -11 11 -11 6
0 3 -7 -5 -16 -12 -11 -13 -20 -6 -34 8 -14 6 -21 -6 -28 -11 -6 -13 -11 -5
-16 6 -4 11 -11 11 -17 0 -5 -10 1 -22 13 -18 18 -23 19 -32 7 -6 -8 -20 -19
-31 -25 -11 -6 -22 -20 -24 -30 -2 -10 -6 -21 -10 -24 -3 -3 -12 -18 -19 -33
-7 -17 -17 -25 -24 -21 -7 5 -9 0 -6 -14 5 -18 2 -22 -19 -22 -18 0 -24 -4
-19 -15 6 -16 -26 -55 -44 -55 -6 0 -23 -12 -39 -28 -82 -78 -97 -87 -92 -60
3 18 -21 6 -26 -12 -3 -10 -15 -22 -27 -26 -11 -4 -31 -16 -42 -28 -24 -23
-68 -59 -129 -105 -22 -17 -47 -37 -56 -46 -9 -8 -21 -15 -28 -15 -6 0 -14 -7
-18 -16 -3 -8 -12 -13 -19 -10 -8 3 -30 -3 -50 -14 -34 -20 -91 -37 -150 -47
-23 -4 -33 0 -38 12 -3 9 -4 21 0 26 8 13 -10 11 -24 -3 -8 -8 -15 -8 -25 0
-8 7 -17 9 -20 6 -9 -9 -77 47 -77 63 0 12 -3 13 -14 4 -15 -13 -49 -4 -40 10
3 5 -2 9 -10 9 -8 0 -17 -4 -21 -9 -15 -26 -144 70 -190 141 -9 16 -23 28 -30
28 -7 0 -15 9 -18 21 -3 13 -10 18 -17 14 -7 -4 -26 6 -43 22 -18 17 -40 33
-50 36 -10 4 -15 11 -12 17 3 5 2 10 -3 10 -5 0 -29 26 -53 58 -23 31 -47 59
-51 60 -5 2 -15 10 -23 19 -13 13 -15 13 -15 -1 0 -9 -7 -16 -15 -16 -8 0 -15
-9 -15 -19 0 -11 -8 -21 -17 -24 -13 -3 -11 -6 10 -12 18 -5 26 -12 23 -21 -3
-9 2 -14 14 -14 13 0 20 -7 20 -20 0 -10 13 -34 28 -52 16 -18 32 -41 35 -51
5 -15 3 -16 -12 -7 -10 5 -31 24 -46 42 -16 18 -31 33 -34 33 -3 0 -6 8 -5 18
0 9 -5 17 -12 17 -6 0 -26 16 -43 35 -17 19 -35 35 -40 35 -11 0 -46 60 -43
72 1 5 -8 8 -21 8 -13 0 -17 3 -10 8 8 5 6 14 -8 30 -10 13 -23 21 -29 17 -11
-7 -50 52 -50 77 0 9 -6 21 -13 25 -7 4 -19 22 -26 38 -8 17 -16 24 -18 18 -6
-18 -33 -16 -33 2 0 8 -6 12 -14 9 -9 -4 -16 2 -18 17 -2 15 -17 30 -41 43
-21 11 -34 22 -28 24 22 7 11 32 -14 32 -16 0 -25 6 -25 15 0 9 -12 20 -27 26
-22 8 -25 12 -13 20 13 8 13 11 0 22 -9 6 -26 29 -39 50 -12 20 -26 37 -30 37
-4 0 -15 13 -24 30 -13 21 -14 30 -6 30 8 0 5 5 -5 13 -10 7 -16 20 -15 28 2
7 -5 28 -14 46 -9 18 -17 42 -17 55 0 17 -3 19 -12 10 -17 -17 -29 -15 -22 3
4 8 1 15 -5 15 -6 0 -8 6 -5 14 4 11 0 13 -15 9 -15 -4 -21 -1 -21 10 0 18
-34 32 -51 21 -7 -4 -9 -3 -6 3 7 10 -20 28 -35 25 -19 -4 -5 20 17 30 29 13
30 17 12 42 -12 16 -14 16 -26 2 -12 -14 -11 -16 5 -16 16 -1 17 -2 3 -10 -18
-11 -61 -2 -53 11 3 5 0 25 -8 44 -9 27 -10 40 -1 54 12 19 8 31 -10 31 -5 0
-6 -7 -3 -16 5 -12 1 -14 -16 -8 -12 3 -31 15 -42 25 -11 11 -24 19 -28 19 -5
0 -4 8 1 18 7 13 6 23 -2 31 -9 9 -9 14 0 19 10 6 9 13 0 32 -7 14 -14 27 -14
30 -7 27 -25 60 -33 60 -5 0 -10 5 -10 11 0 7 10 9 25 7 29 -6 33 9 8 27 -15
12 -16 16 -4 39 16 30 9 45 -13 27 -12 -10 -17 -9 -25 7 -5 10 -7 29 -4 41 3
13 1 26 -5 30 -6 3 -12 32 -14 64 -2 31 -6 57 -10 57 -5 0 -8 13 -8 28 0 15
-6 34 -12 41 -10 11 -10 14 0 18 21 8 13 25 -8 18 -15 -5 -20 -2 -20 12 0 10
-3 29 -7 43 -6 23 -5 24 11 11 14 -12 18 -12 31 5 17 23 19 34 4 34 -6 0 -8 7
-5 16 4 11 -1 22 -14 31 -15 10 -20 25 -20 57 0 23 -6 48 -12 54 -10 10 -10
15 2 22 8 5 11 12 8 16 -4 4 -3 14 1 23 5 9 12 45 15 81 9 107 17 154 26 165
5 6 6 28 4 50 -11 94 -9 145 4 145 7 0 10 5 7 10 -3 6 -2 10 3 10 12 0 25 31
17 39 -3 3 -11 -1 -16 -9 -9 -13 -10 -12 -5 2 3 11 -2 19 -15 23 -11 4 -19 12
-18 18 3 27 -2 36 -16 31 -10 -4 -15 0 -15 11 0 11 5 15 15 12 18 -7 30 9 13
16 -9 4 -10 8 -2 14 6 4 14 21 18 36 4 16 12 27 19 24 15 -5 36 22 37 46 0 26
-15 20 -28 -10 -10 -25 -11 -26 -5 -3 8 34 22 50 38 43 9 -3 16 4 20 19 5 20
13 25 42 26 42 2 59 12 20 12 -15 0 -27 4 -27 9 0 13 53 21 65 10 12 -11 28
-12 21 0 -3 4 19 11 50 15 41 5 61 3 76 -9 13 -9 31 -12 46 -8 14 3 23 2 19
-3 -6 -11 56 -12 63 -2 3 4 26 4 50 -1 27 -5 36 -10 23 -11 -38 -4 -41 -5 -48
-12 -4 -4 -13 -4 -21 -1 -8 3 -14 1 -14 -4 0 -12 104 -38 118 -29 5 3 30 2 56
-3 25 -4 48 -6 51 -3 2 3 47 6 100 8 62 2 102 8 117 18 13 8 46 20 73 26 28 6
83 24 124 40 40 17 82 30 92 30 11 0 19 4 19 10 0 8 59 40 80 44 3 1 19 11 37
24 17 12 35 22 41 22 5 0 15 7 22 15 8 9 17 11 28 5 10 -5 25 -11 35 -14 10
-3 17 -14 16 -23 -3 -34 1 -38 14 -14 17 34 35 37 35 6 0 -14 -4 -25 -9 -25
-5 0 -9 -9 -9 -20 0 -26 10 -25 39 5 23 25 43 27 24 3 -16 -19 -4 -78 13 -71
19 7 18 29 -1 37 -22 8 -18 26 6 26 11 0 18 4 14 9 -3 5 0 13 5 16 6 4 11 19
10 33 -4 58 0 82 14 82 8 0 18 5 22 12 4 7 3 8 -4 4 -7 -4 -12 -2 -12 4 0 6
-5 8 -11 5 -6 -4 -5 2 2 13 7 12 16 19 20 16 4 -2 14 9 22 26 10 19 12 32 6
36 -6 3 -8 12 -5 20 3 8 -4 24 -15 35 -11 11 -17 24 -13 30 3 6 -3 17 -15 25
-12 8 -21 21 -21 28 0 7 -9 21 -20 31 -11 10 -18 21 -15 25 2 4 -7 5 -20 2
-18 -3 -25 0 -25 12 0 9 -8 16 -18 16 -14 0 -19 8 -19 30 0 25 4 29 19 24 13
-4 16 -1 12 10 -3 9 -10 16 -14 16 -4 0 -27 19 -50 42 -30 31 -44 38 -49 29
-7 -10 -14 -10 -37 3 -28 15 -28 15 -5 16 23 0 23 1 7 19 -13 15 -14 20 -4 24
8 3 3 9 -13 15 -21 8 -49 42 -35 42 15 0 62 -33 73 -52 14 -23 14 -23 10 5 -4
25 -3 26 12 14 9 -7 23 -13 31 -12 8 1 23 -2 32 -7 9 -4 19 -4 22 1 6 9 -36
31 -59 31 -7 0 -27 11 -43 25 -33 28 -47 32 -39 12 4 -10 -5 -8 -31 5 -21 10
-36 23 -34 28 1 6 -31 10 -75 10 -46 0 -73 4 -65 9 24 15 -38 33 -75 22 -31
-9 -37 -7 -34 12 1 5 -3 6 -9 2 -5 -3 -10 -2 -10 2 0 9 -61 6 -90 -3 -13 -4
-13 -6 0 -15 12 -9 12 -10 -3 -5 -10 3 -23 6 -29 6 -6 0 -6 6 2 15 7 8 18 15
24 15 7 0 20 6 30 13 16 12 16 13 -3 13 -12 0 -21 -4 -21 -8 0 -4 -7 -8 -15
-8 -8 0 -15 -4 -15 -9 0 -5 -11 -8 -25 -7 -14 0 -25 4 -25 8 0 3 -6 9 -12 11
-7 2 -2 3 12 1 14 -1 32 1 39 5 22 14 -12 20 -55 10 -55 -12 -64 -10 -29 6 17
9 21 13 8 9 -12 -2 -24 -1 -27 4 -3 6 16 13 42 18 29 4 39 9 27 12 -11 2 -23
9 -27 16 -5 7 -8 5 -8 -6 0 -10 -7 -18 -16 -18 -8 0 -13 3 -11 8 3 4 -6 8 -20
9 -19 1 -22 -1 -12 -8 16 -10 8 -12 -15 -3 -9 3 -13 10 -10 15 3 5 1 9 -5 9
-6 0 -15 -9 -21 -20 -6 -10 -17 -17 -24 -14 -8 3 -17 1 -21 -5 -3 -6 -12 -11
-18 -11 -7 0 -6 4 3 10 26 16 -5 33 -60 31 -45 -1 -50 1 -40 14 10 12 3 14
-48 12 -33 -1 -58 1 -56 5 3 4 10 8 15 8 6 0 17 6 25 14 12 13 11 15 -8 19
-20 3 -19 5 14 20 20 9 41 23 45 31 4 7 23 21 41 30 28 15 33 21 28 42 -5 19
-2 26 16 33 14 5 28 5 35 -1 9 -8 15 -4 22 13 4 13 11 23 15 22 18 -8 36 -1
36 12 0 8 9 15 19 15 11 0 23 5 26 10 4 6 11 8 16 5 5 -4 9 -2 9 4 0 5 -4 13
-10 16 -15 10 -12 35 5 35 8 0 15 5 15 10 0 6 7 10 16 10 8 0 12 -4 9 -10 -3
-5 -1 -10 5 -10 7 0 9 8 5 20 -4 11 -2 20 4 20 6 0 11 -5 11 -11 0 -5 5 -7 11
-4 6 4 8 13 5 21 -3 8 0 14 7 13 26 -3 35 2 42 24 4 13 8 17 12 10 6 -16 43
-17 43 -1 0 6 7 3 15 -8 9 -11 14 -13 13 -5 -2 11 31 22 127 43 131 30 150 37
144 57 -3 7 -14 6 -33 -4 -32 -17 -101 -21 -76 -5 13 9 13 10 0 10 -12 1 -11
4 4 15 16 13 15 14 -18 12 -20 -1 -36 -5 -36 -8 0 -10 -37 -17 -49 -10 -8 5
-5 14 10 27 12 10 30 36 41 57 l19 39 -46 -47 c-35 -34 -50 -43 -59 -36 -7 6
-27 8 -44 5 -16 -3 -38 -1 -49 5 -10 6 -12 11 -5 11 17 0 15 20 -3 20 -8 0
-15 5 -15 11 0 5 5 7 10 4 6 -4 17 -1 25 5 8 6 19 8 26 4 7 -4 10 -2 7 6 -6
20 -24 23 -39 8 -16 -15 -28 -16 -48 -4 -11 7 -13 5 -8 -7 3 -10 2 -17 -3 -17
-5 0 -8 23 -6 50 2 28 0 53 -6 56 -5 3 -2 14 8 25 16 17 16 19 1 19 -29 0 -19
20 11 21 16 1 20 3 10 6 -10 2 -18 10 -18 16 0 8 -3 7 -9 -2 -6 -9 -11 -10
-15 -2 -8 12 10 34 34 44 12 4 11 6 -2 6 -10 1 -18 6 -18 12 0 6 6 9 13 6 17
-6 44 9 34 19 -4 5 -23 8 -42 8 -35 0 -46 9 -22 20 9 5 9 7 -1 12 -21 10 5 32
44 40 19 3 34 10 34 15 0 5 -13 6 -29 3 -26 -5 -30 -3 -28 15 1 11 7 21 15 21
7 0 11 4 8 9 -3 4 -17 6 -31 3 -26 -5 -34 11 -12 25 21 14 41 57 28 61 -6 2
-2 11 11 22 l23 19 -22 -6 c-29 -7 -31 13 -3 22 11 4 18 10 15 15 -3 5 -13 6
-21 3 -27 -10 -12 30 16 44 14 7 21 13 16 13 -5 0 -4 6 1 13 6 6 13 23 16 35
5 20 2 23 -14 19 -20 -5 -26 7 -9 18 17 11 11 23 -17 34 -22 9 -23 10 -5 7 17
-3 22 -1 18 10 -3 9 3 16 19 20 14 3 22 10 19 16 -3 5 -16 2 -31 -7 -14 -9
-27 -14 -31 -11 -7 8 27 34 56 42 12 3 22 14 22 23 0 13 2 13 9 2 5 -7 14 -10
20 -7 6 4 11 3 11 -3 0 -5 -8 -15 -17 -20 -25 -14 -7 -14 20 0 30 16 37 30 32
58 -3 18 -1 21 7 13 7 -7 19 -12 27 -12 13 1 13 3 -2 11 -11 7 -16 17 -12 29
3 10 1 21 -4 24 -6 4 -7 14 -4 23 4 11 3 14 -5 9 -7 -4 -12 -2 -12 4 0 6 11
16 25 22 14 6 25 15 25 20 0 5 -9 4 -19 -2 -25 -13 -31 -13 -31 0 0 6 8 10 18
10 9 0 26 7 36 15 11 8 25 15 30 15 6 0 5 -4 -3 -9 -7 -5 -11 -13 -7 -19 6
-11 16 -10 66 4 19 6 11 -7 -37 -53 -34 -33 -59 -63 -56 -67 4 -3 18 -6 32 -6
19 0 22 3 13 12 -20 20 -14 26 25 26 24 0 41 6 50 18 7 10 13 14 13 8 1 -12
40 35 40 48 0 5 -10 7 -22 4 l-23 -6 23 11 c23 12 30 29 12 29 -5 0 -10 5 -10
10 0 6 18 10 39 10 26 0 41 5 45 16 4 10 2 13 -7 8 -7 -5 -6 0 3 10 11 15 23
17 59 12 34 -5 49 -2 63 11 15 14 19 14 16 3 -2 -8 -10 -20 -18 -27 -12 -10
-9 -12 20 -13 l35 -1 -25 -14 c-25 -14 -25 -14 14 -15 32 0 36 2 27 14 -15 18
4 33 22 18 17 -13 67 -21 67 -10 0 5 4 6 10 3 5 -3 18 -1 27 5 17 11 17 11 0
6 -12 -4 -17 -2 -15 6 7 21 31 15 44 -10 6 -13 14 -23 18 -23 3 1 6 -1 6 -4 0
-6 -6 -6 -25 2 -25 9 -27 -2 -4 -25 14 -16 27 -20 44 -16 21 5 25 2 25 -15 0
-16 6 -21 26 -21 14 0 23 4 19 10 -3 6 1 10 9 10 30 0 16 15 -16 17 -17 1 -39
10 -47 18 -14 14 -14 17 -1 25 9 6 16 6 18 0 4 -12 22 -13 22 -2 0 4 -13 16
-30 25 -16 10 -30 15 -30 11 0 -4 -8 0 -18 9 -10 10 -22 14 -25 10 -4 -3 -7 3
-7 14 0 25 14 40 18 19 2 -9 12 -16 23 -16z m383 14 c3 -8 2 -12 -4 -9 -6 3
-10 10 -10 16 0 14 7 11 14 -7z m2226 6 c0 -5 -2 -10 -4 -10 -3 0 -8 5 -11 10
-3 6 -1 10 4 10 6 0 11 -4 11 -10z m-5110 -9 c0 -5 -3 -16 -6 -25 -5 -12 -9
-13 -25 -3 -27 17 -24 37 6 37 14 0 25 -4 25 -9z m2446 -2 c8 -13 -16 -30 -30
-22 -6 4 -5 8 2 11 7 2 10 8 6 13 -3 5 -1 9 5 9 5 0 13 -5 17 -11z m-2506 -49
c9 -17 5 -22 -30 -39 -32 -15 -40 -16 -40 -5 0 8 4 14 8 14 5 0 14 11 20 25
14 30 28 32 42 5z m3330 -40 c0 -5 -2 -10 -4 -10 -3 0 -8 5 -11 10 -3 6 -1 10
4 10 6 0 11 -4 11 -10z m170 -10 c13 -8 13 -10 -2 -10 -9 0 -20 5 -23 10 -8
13 5 13 25 0z m70 -9 c13 -13 12 -14 -4 -8 -10 4 -22 7 -27 7 -5 0 -9 4 -9 8
0 14 25 10 40 -7z m-3552 -17 c-4 -19 -54 -51 -65 -40 -9 8 41 56 58 56 6 0 9
-7 7 -16z m3592 6 c0 -5 -2 -10 -4 -10 -3 0 -8 5 -11 10 -3 6 -1 10 4 10 6 0
11 -4 11 -10z m1705 0 c3 -6 -1 -7 -9 -4 -18 7 -21 14 -7 14 6 0 13 -4 16 -10z
m-3528 -16 c-3 -3 -12 -4 -19 -1 -8 3 -5 6 6 6 11 1 17 -2 13 -5z m88 -5 c11
-16 1 -19 -13 -3 -7 8 -8 14 -3 14 5 0 13 -5 16 -11z m1545 1 c0 -5 -4 -10
-10 -10 -5 0 -10 5 -10 10 0 6 5 10 10 10 6 0 10 -4 10 -10z m175 -10 c3 -5
-1 -10 -9 -10 -9 0 -16 5 -16 10 0 6 4 10 9 10 6 0 13 -4 16 -10z m-137 -23
c2 -9 -2 -17 -8 -17 -6 0 -8 5 -5 10 4 6 -8 10 -27 11 -31 1 -31 1 -8 9 33 10
44 7 48 -13z m-81 -3 c-3 -3 -12 -4 -19 -1 -8 3 -5 6 6 6 11 1 17 -2 13 -5z
m197 -9 c11 -8 15 -15 10 -15 -6 0 -19 7 -30 15 -10 8 -14 14 -9 14 6 0 19 -6
29 -14z m146 5 c0 -5 -2 -10 -4 -10 -3 0 -8 5 -11 10 -3 6 -1 10 4 10 6 0 11
-4 11 -10z m-1880 -20 c0 -5 -5 -10 -11 -10 -5 0 -7 5 -4 10 3 6 8 10 11 10 2
0 4 -4 4 -10z m-1940 -21 c0 -11 -60 -99 -68 -99 -9 0 8 64 23 87 16 24 45 32
45 12z m2004 -23 c-6 -16 -24 -23 -24 -8 0 10 22 33 27 28 2 -2 1 -11 -3 -20z
m1686 14 c0 -5 -5 -10 -11 -10 -5 0 -7 5 -4 10 3 6 8 10 11 10 2 0 4 -4 4 -10z
m180 -20 c0 -5 -2 -10 -4 -10 -3 0 -8 5 -11 10 -3 6 -1 10 4 10 6 0 11 -4 11
-10z m1668 -15 c-3 -3 -9 2 -12 12 -6 14 -5 15 5 6 7 -7 10 -15 7 -18z m-5677
-189 c-28 -56 -51 -96 -51 -90 0 21 44 139 84 223 l11 25 3 -29 c3 -18 -13
-62 -47 -129z m109 -41 c0 -16 -6 -25 -15 -25 -9 0 -15 9 -15 25 0 16 6 25 15
25 9 0 15 -9 15 -25z m1880 9 c0 -8 -4 -12 -10 -9 -5 3 -10 10 -10 16 0 5 5 9
10 9 6 0 10 -7 10 -16z m40 -13 c0 -6 -4 -13 -10 -16 -5 -3 -10 1 -10 9 0 9 5
16 10 16 6 0 10 -4 10 -9z m-1920 -56 c0 -14 -4 -25 -9 -25 -12 0 -23 29 -15
41 10 18 24 9 24 -16z m3986 -105 c17 0 19 -26 2 -36 -7 -5 -9 -2 -5 9 3 9 0
18 -9 21 -8 3 -13 16 -13 28 l2 23 4 -22 c2 -13 11 -23 19 -23z m44 -65 c5 -3
8 -11 4 -16 -3 -5 -11 -6 -17 -2 -12 8 -17 9 -37 12 -5 0 -10 5 -10 10 0 9 43
7 60 -4z m-2210 -30 c0 -8 -4 -15 -10 -15 -5 0 -7 7 -4 15 4 8 8 15 10 15 2 0
4 -7 4 -15z m2226 -43 c-9 -8 -26 10 -26 26 1 15 2 15 15 -2 8 -11 13 -21 11
-24z m-2208 -11 c-1 -22 -5 -38 -9 -35 -5 3 -5 12 -2 20 5 13 1 15 -18 9 l-24
-7 25 25 c14 14 26 25 28 26 2 1 2 -17 0 -38z m32 14 c0 -8 -4 -15 -10 -15 -5
0 -10 7 -10 15 0 8 5 15 10 15 6 0 10 -7 10 -15z m2224 -11 c5 -14 4 -15 -9
-4 -17 14 -19 20 -6 20 5 0 12 -7 15 -16z m-4064 -63 c0 -5 -7 -24 -15 -42
l-14 -34 -1 43 c0 31 4 42 15 42 8 0 15 -4 15 -9z m1796 -88 c-10 -10 -19 5
-10 18 6 11 8 11 12 0 2 -7 1 -15 -2 -18z m-1648 -65 c18 -18 14 -53 -9 -74
-17 -16 -22 -16 -29 -4 -11 17 -13 74 -3 83 10 11 28 8 41 -5z m1682 -3 c0
-12 -19 -12 -23 0 -4 9 -1 12 9 8 7 -3 14 -7 14 -8z m10 -66 c0 -10 -31 -20
-41 -13 -17 10 -9 22 16 20 14 0 25 -4 25 -7z m-30 -89 c0 -5 -7 -10 -16 -10
-8 0 -12 5 -9 10 3 6 10 10 16 10 5 0 9 -4 9 -10z m-1612 -26 c-5 -26 -37 -42
-48 -24 -11 18 6 40 32 40 13 0 18 -6 16 -16z m1697 -14 c3 -5 1 -10 -4 -10
-6 0 -11 5 -11 10 0 6 2 10 4 10 3 0 8 -4 11 -10z m-1677 -68 c2 -14 -3 -25
-13 -29 -19 -7 -35 12 -35 40 0 28 44 18 48 -11z m1900 1 c-3 -19 -48 -32 -48
-14 0 6 7 11 15 11 8 0 15 5 15 10 0 6 5 10 11 10 6 0 9 -8 7 -17z m1867 -73
c3 -5 1 -10 -4 -10 -6 0 -11 5 -11 10 0 6 2 10 4 10 3 0 8 -4 11 -10z m2560
-20 c3 -5 1 -39 -6 -75 -9 -52 -15 -65 -28 -63 -13 3 -15 14 -13 52 5 76 28
117 47 86z m-6287 -39 c3 -8 -1 -12 -9 -9 -7 2 -15 10 -17 17 -3 8 1 12 9 9 7
-2 15 -10 17 -17z m1496 -13 c7 -5 4 -8 -6 -8 -12 0 -18 7 -17 23 0 15 2 17 6
7 3 -8 11 -18 17 -22z m-1394 -12 c0 -2 -7 -9 -15 -16 -12 -10 -15 -10 -15 4
0 9 7 16 15 16 8 0 15 -2 15 -4z m-60 -58 c0 -29 -17 -21 -29 13 -15 43 -14
45 9 24 11 -10 20 -26 20 -37z m6058 -62 c5 -39 -13 -55 -35 -33 -14 13 -15
21 -5 42 15 33 36 28 40 -9z m-4921 -192 c-3 -3 -12 -4 -19 -1 -8 3 -5 6 6 6
11 1 17 -2 13 -5z m3033 -14 c0 -5 -7 -7 -15 -4 -8 4 -15 8 -15 10 0 2 7 4 15
4 8 0 15 -4 15 -10z m-2900 -98 c0 -12 -47 -32 -73 -31 -17 0 -13 5 18 19 46
21 55 23 55 12z m164 -8 c3 -8 2 -12 -4 -9 -6 3 -10 10 -10 16 0 14 7 11 14
-7z m2023 -10 c-3 -3 -12 -4 -19 -1 -8 3 -5 6 6 6 11 1 17 -2 13 -5z m166 -1
c-7 -2 -19 -2 -25 0 -7 3 -2 5 12 5 14 0 19 -2 13 -5z m152 -3 c3 -5 2 -10 -4
-10 -5 0 -13 5 -16 10 -3 6 -2 10 4 10 5 0 13 -4 16 -10z m-2478 -6 c-3 -3
-12 -4 -19 -1 -8 3 -5 6 6 6 11 1 17 -2 13 -5z m206 -11 c-7 -2 -19 -2 -25 0
-7 3 -2 5 12 5 14 0 19 -2 13 -5z m34 -19 c-3 -3 -12 -4 -19 -1 -8 3 -5 6 6 6
11 1 17 -2 13 -5z m162 -20 c2 -2 -12 -4 -32 -4 -20 0 -37 4 -37 10 0 8 58 3
69 -6z m1668 0 c-3 -3 -12 -4 -19 -1 -8 3 -5 6 6 6 11 1 17 -2 13 -5z m-102
-34 c-9 -16 -22 -30 -31 -30 -11 0 -12 4 -4 20 8 16 36 38 48 40 1 0 -4 -13
-13 -30z m75 0 c-20 -13 -33 -13 -25 0 3 6 14 10 23 10 15 0 15 -2 2 -10z
m-1775 -20 c-3 -5 -16 -10 -28 -9 -20 1 -20 2 3 9 14 4 26 8 28 9 2 1 0 -3 -3
-9z m255 -10 c13 -8 13 -10 -2 -10 -9 0 -20 5 -23 10 -8 13 5 13 25 0z m1710
-4 c0 -2 -7 -7 -16 -10 -8 -3 -12 -2 -9 4 6 10 25 14 25 6z m425 -6 c7 -12 -2
-12 -30 0 -19 8 -19 9 2 9 12 1 25 -3 28 -9z m-131 -19 c3 -4 28 -11 56 -15
28 -4 48 -11 45 -16 -9 -15 12 -12 45 5 17 9 30 13 30 9 0 -4 6 -2 13 3 6 6
21 13 32 17 16 6 18 5 7 -6 -10 -10 -4 -15 35 -23 32 -7 48 -16 47 -25 -1 -12
9 -15 40 -13 l41 3 -30 -15 c-16 -8 -47 -14 -69 -15 -26 0 -37 -4 -33 -12 3
-10 -7 -12 -38 -10 -32 3 -42 0 -42 -12 0 -12 13 -15 66 -13 38 1 72 8 80 15
11 10 16 11 21 1 6 -9 19 -8 56 5 59 20 75 20 49 0 -19 -15 -16 -15 33 -9 42
6 52 4 50 -7 -2 -7 6 -14 17 -14 37 -3 40 -4 69 -30 l30 -26 -25 -19 c-13 -10
-34 -19 -46 -19 -13 0 -23 -5 -23 -11 0 -8 -5 -8 -15 1 -12 10 -15 10 -15 -4
0 -9 -5 -16 -11 -16 -5 0 -7 5 -4 10 3 6 1 10 -5 10 -6 0 -13 -7 -17 -16 -5
-15 -7 -15 -15 0 -5 9 -14 14 -19 11 -5 -4 -7 -11 -4 -16 8 -12 -2 -11 -27 2
-18 10 -20 9 -15 -5 5 -14 3 -15 -13 -6 -11 6 -23 22 -26 35 -4 18 -13 25 -29
25 -13 0 -26 4 -29 8 -3 5 -19 7 -36 4 -16 -2 -30 0 -30 6 0 15 -32 20 -76 13
-23 -4 -64 -1 -99 7 -34 7 -81 11 -110 7 -114 -13 -305 -17 -305 -6 0 6 -7 11
-16 11 -8 0 -12 -5 -8 -11 7 -11 -36 8 -46 20 -11 14 -60 41 -60 33 0 -5 -7
-9 -15 -9 -29 0 5 25 43 31 68 12 144 44 136 58 -6 9 7 11 43 8 12 0 32 6 45
14 15 9 40 14 70 12 26 -2 45 0 43 5 -3 4 3 10 12 12 32 8 92 7 97 -2z m-654
-46 c0 -3 -6 -14 -12 -25 -10 -15 -10 -22 -1 -31 9 -9 11 -7 9 7 -2 10 -1 13
1 7 3 -7 9 -13 14 -13 5 0 4 -7 -3 -15 -11 -12 -15 -12 -30 5 -9 11 -15 28
-13 38 2 9 4 20 4 25 1 8 31 10 31 2z m-53 -22 c0 -15 -19 -12 -24 3 -2 6 3
11 10 11 8 0 14 -6 14 -14z m-2032 -3 c-3 -5 1 -10 10 -10 9 0 13 5 10 11 -4
6 2 5 13 -2 12 -7 19 -16 17 -19 -2 -4 10 -4 27 -2 26 4 30 2 25 -11 -8 -21 0
-25 64 -33 30 -3 57 -8 62 -11 4 -2 7 1 7 6 0 6 -10 11 -22 11 -13 0 -34 3
-48 7 l-25 7 25 6 c14 4 32 3 41 -1 16 -8 47 5 32 14 -4 3 -26 8 -47 12 -28 6
-37 5 -32 -4 10 -16 -7 -14 -30 5 -19 15 -18 15 4 11 12 -3 22 -1 22 3 0 5 36
-3 81 -16 44 -14 86 -23 92 -21 6 2 -10 9 -36 15 -26 7 -47 15 -47 18 0 3 10
4 23 0 13 -3 70 -8 128 -12 57 -3 119 -12 138 -20 41 -17 68 -18 74 -1 4 8 8
8 14 2 4 -5 13 -10 18 -11 29 -1 65 -18 65 -29 0 -8 -24 -25 -54 -39 -58 -27
-81 -33 -71 -16 8 13 -18 13 -31 0 -16 -16 -164 -12 -164 5 0 5 -5 4 -11 -2
-11 -11 -66 -8 -99 4 -19 8 -62 3 -75 -7 -15 -12 -48 -16 -62 -7 -9 5 -13 3
-13 -7 0 -18 -8 -20 -30 -6 -9 5 -19 5 -27 -2 -7 -5 -20 -8 -28 -4 -10 4 -15
-1 -15 -14 0 -21 -15 -27 -25 -10 -3 6 -16 9 -28 9 -17 -1 -18 -2 -4 -6 29 -8
8 -24 -26 -20 -18 2 -24 2 -14 0 36 -9 17 -26 -24 -20 -32 4 -39 2 -35 -9 3
-9 -1 -14 -13 -14 -34 0 -68 -88 -41 -105 6 -3 7 -18 4 -33 -4 -21 -3 -24 5
-12 6 9 11 10 11 3 0 -6 -7 -19 -16 -27 -8 -9 -11 -16 -5 -16 6 0 8 -7 5 -15
-4 -8 -1 -15 6 -15 6 0 8 -4 5 -10 -3 -5 -19 -10 -35 -10 -15 0 -30 -7 -34
-15 -3 -8 -13 -15 -23 -15 -15 0 -16 2 -3 10 12 8 10 10 -10 11 -23 0 -23 1
-5 8 19 8 18 9 -7 21 -26 12 -29 17 -27 36 0 4 -10 12 -23 18 -13 6 -23 18
-23 26 0 8 -4 21 -9 29 -5 8 -3 17 5 22 12 8 12 11 -1 19 -10 6 -11 10 -2 10
6 0 12 9 12 20 0 11 7 23 15 26 8 4 15 10 15 16 0 5 -4 6 -10 3 -5 -3 -10 0
-10 9 0 8 5 16 10 18 6 2 12 13 13 26 1 14 7 21 17 19 9 -1 14 4 12 15 -2 12
2 16 12 12 9 -3 31 3 49 15 19 12 42 21 51 21 10 0 14 5 10 11 -4 8 0 9 15 4
24 -7 64 3 56 15 -3 4 12 11 33 15 20 4 43 11 49 17 7 6 20 8 28 4 9 -3 13 -2
10 4 -3 6 -13 10 -21 10 -15 0 -19 12 -7 23 10 10 15 8 8 -3z m-55 -20 c0 -5
-2 -10 -4 -10 -3 0 -8 5 -11 10 -3 6 -1 10 4 10 6 0 11 -4 11 -10z m-832 -17
c-2 -13 3 -17 16 -15 17 3 18 2 7 -12 -8 -10 -9 -16 -3 -16 6 0 10 -9 9 -19
-2 -35 -50 7 -70 62 -5 13 -1 17 19 17 18 0 24 -5 22 -17z m807 -3 c-3 -5 -10
-10 -16 -10 -5 0 -9 5 -9 10 0 6 7 10 16 10 8 0 12 -4 9 -10z m672 4 c-3 -3
-12 -4 -19 -1 -8 3 -5 6 6 6 11 1 17 -2 13 -5z m-709 -33 c3 -8 -1 -12 -9 -9
-7 2 -15 10 -17 17 -3 8 1 12 9 9 7 -2 15 -10 17 -17z m1125 -29 c-4 -15 -6
-37 -6 -49 1 -17 -2 -19 -12 -10 -16 15 -14 39 5 55 13 12 13 13 -4 8 -15 -5
-17 -4 -8 7 7 8 9 17 5 21 -4 4 0 4 9 1 12 -5 15 -14 11 -33z m1217 21 c0 -16
-60 -64 -60 -49 0 16 14 36 26 36 8 0 14 5 14 10 0 6 5 10 10 10 6 0 10 -3 10
-7z m-1180 -43 c0 -5 -4 -10 -10 -10 -5 0 -10 5 -10 10 0 6 5 10 10 10 6 0 10
-4 10 -10z m17 -23 c3 -4 1 -7 -6 -7 -7 0 -9 -4 -6 -10 10 -16 -4 -11 -27 9
l-21 20 27 -3 c14 -1 29 -6 33 -9z m1548 -2 c33 -3 69 -9 80 -12 18 -5 18 -6
-5 -15 -15 -5 -26 -5 -28 0 -1 5 -15 7 -30 4 l-27 -6 25 -7 c16 -4 -1 -7 -50
-8 -41 -1 -92 -5 -113 -10 -35 -8 -38 -7 -34 9 4 15 0 17 -19 14 -26 -5 -33
13 -9 22 22 9 118 22 135 18 8 -1 42 -5 75 -9z m-485 0 c0 -5 -77 -55 -85 -55
-3 0 -5 7 -5 15 0 8 14 17 35 21 19 3 38 10 41 15 6 10 14 12 14 4z m1993 -10
c-3 -9 -8 -14 -10 -11 -3 3 -2 9 2 15 9 16 15 13 8 -4z m-1873 -20 c-7 -8 -17
-15 -22 -15 -6 0 -5 7 2 15 7 8 17 15 22 15 6 0 5 -7 -2 -15z m-1795 -5 c8 13
175 13 195 -1 12 -8 9 -10 -13 -6 -25 4 -26 3 -13 -12 13 -15 7 -16 -67 -16
-111 1 -115 2 -128 28 -11 19 -11 21 3 9 11 -9 18 -10 23 -2z m3016 -42 c33
-29 54 -111 33 -129 -8 -6 -14 -28 -14 -49 0 -34 -4 -40 -40 -59 -27 -14 -50
-19 -72 -15 -56 10 -61 13 -49 27 8 11 5 13 -18 9 -16 -2 -32 1 -35 7 -4 6 0
11 8 11 13 0 12 4 -4 20 -11 11 -28 20 -37 20 -47 1 -53 33 -9 50 l21 9 -22 0
c-28 1 -31 21 -3 21 11 0 20 7 20 15 0 8 7 15 15 15 8 0 15 -5 15 -12 0 -6 3
-8 6 -5 4 4 1 13 -6 22 -10 12 -10 15 1 16 9 0 10 2 3 5 -12 5 -7 44 5 44 3 1
29 7 56 14 55 15 73 10 126 -36z m-3071 32 c0 -5 -2 -10 -4 -10 -3 0 -8 5 -11
10 -3 6 -1 10 4 10 6 0 11 -4 11 -10z m3930 -44 c19 -1 31 -14 48 -47 22 -45
22 -50 13 -190 -6 -79 -13 -158 -17 -176 -19 -95 -70 -1 -124 229 -33 143 -24
206 28 193 15 -3 38 -7 52 -9z m-2000 -76 c5 0 13 -15 18 -32 6 -18 13 -41 17
-52 8 -18 4 -18 -61 -12 -38 4 -79 10 -91 13 -27 6 -30 34 -5 54 28 23 82 51
82 43 0 -5 6 -2 13 5 10 10 13 9 15 -3 2 -9 7 -16 12 -16z m190 20 c0 -5 -5
-10 -11 -10 -5 0 -7 5 -4 10 3 6 8 10 11 10 2 0 4 -4 4 -10z m658 -28 c25 -19
22 -52 -6 -52 -8 0 -12 3 -9 6 3 4 -5 16 -19 27 -20 15 -23 22 -12 28 18 12
20 11 46 -9z m-1078 2 c0 -3 -13 -24 -29 -47 -16 -23 -31 -53 -33 -67 -3 -21
2 -25 37 -33 22 -4 47 -8 55 -7 55 2 87 7 98 13 6 5 17 5 23 1 6 -3 39 -8 73
-11 33 -2 75 -5 91 -6 21 -1 29 2 27 12 -2 9 4 12 19 8 12 -3 30 -2 39 3 14 7
17 6 16 -8 -1 -13 6 -16 31 -14 21 2 34 -2 41 -14 7 -12 11 -13 17 -4 4 7 2
16 -6 21 -11 7 -10 9 4 9 9 0 17 -5 17 -11 0 -6 7 -9 15 -5 8 3 15 2 15 -2 0
-12 39 -12 46 0 4 7 9 6 14 -2 4 -7 13 -9 20 -5 9 6 9 9 0 15 -7 4 31 11 84
15 53 4 96 11 96 16 0 5 6 9 14 9 21 0 27 -41 11 -74 -8 -16 -15 -37 -15 -48
0 -10 -5 -18 -12 -18 -6 0 -9 -3 -5 -6 8 -8 -18 -34 -35 -34 -7 0 -26 -7 -43
-16 -16 -8 -50 -17 -75 -20 -25 -2 -53 -7 -63 -10 -27 -9 -287 -11 -282 -3 3
4 -6 9 -20 11 -14 3 -25 2 -25 -1 0 -3 -17 -6 -38 -5 -20 0 -43 -4 -50 -10
-10 -7 -17 -5 -23 7 -6 9 -18 17 -27 17 -14 0 -15 -2 -2 -10 8 -5 12 -12 8
-15 -6 -7 -86 32 -106 52 -7 7 -20 13 -28 13 -8 0 -22 9 -31 19 -9 11 -20 18
-25 15 -4 -3 -8 2 -8 10 0 8 -11 26 -23 40 -19 20 -24 38 -26 85 -1 33 3 62 9
66 6 3 7 11 4 17 -5 8 3 9 24 5 19 -4 32 -2 32 3 0 6 7 10 15 10 8 0 15 5 15
10 0 6 5 10 10 10 6 0 10 -3 10 -6z m-1510 -14 c0 -5 -7 -10 -15 -10 -8 0 -15
5 -15 10 0 6 7 10 15 10 8 0 15 -4 15 -10z m219 -23 c28 7 80 -23 78 -45 -1
-16 -10 -19 -52 -20 -71 -2 -81 6 -64 54 8 23 14 32 17 23 2 -11 10 -15 21
-12z m235 -28 c12 19 31 12 43 -16 18 -45 24 -83 13 -83 -5 0 -10 -7 -10 -15
0 -8 -12 -18 -27 -21 -16 -4 -36 -13 -45 -21 -9 -8 -21 -12 -26 -9 -5 3 -18
-1 -28 -9 -10 -8 -26 -15 -35 -15 -22 0 -149 -58 -166 -76 -16 -15 -16 -15
-83 -18 -25 -1 -59 -6 -77 -10 -18 -4 -34 -3 -37 3 -4 6 -19 6 -43 -1 -26 -7
-42 -6 -59 2 -12 7 -27 10 -32 6 -16 -9 -165 16 -183 31 -8 7 -25 13 -36 13
-32 0 -54 11 -46 23 3 5 -2 16 -12 24 -11 7 -16 13 -13 13 3 0 2 16 -2 36 -9
38 -1 54 32 66 10 4 19 1 22 -8 4 -9 11 -12 18 -8 19 12 54 9 72 -5 9 -8 33
-15 54 -16 20 -1 37 -3 37 -4 0 -2 9 -4 20 -6 11 -2 32 -6 48 -9 15 -3 27 -2
27 2 0 4 37 8 83 9 87 2 262 11 262 13 0 1 8 3 18 5 43 8 -9 -26 -79 -52 -41
-15 -74 -31 -74 -36 0 -13 64 10 185 69 28 13 76 29 107 35 32 5 60 14 63 19
8 13 -22 68 -45 83 -11 6 -20 18 -20 26 0 10 13 3 34 -18 21 -20 36 -29 40
-22z m1711 21 c-3 -5 -10 -10 -16 -10 -5 0 -9 5 -9 10 0 6 7 10 16 10 8 0 12
-4 9 -10z m-2385 -25 c0 -8 -3 -15 -6 -15 -3 0 -12 7 -20 15 -14 13 -13 15 5
15 12 0 21 -6 21 -15z m1780 5 c0 -5 -4 -10 -10 -10 -5 0 -10 5 -10 10 0 6 5
10 10 10 6 0 10 -4 10 -10z m2025 -47 c16 -52 37 -107 69 -185 6 -16 14 -28
18 -28 14 0 50 -117 54 -175 2 -33 6 -79 8 -102 6 -76 -43 -215 -86 -242 -21
-13 -38 -7 -38 15 0 8 -12 33 -27 57 -34 52 -76 128 -105 187 -37 78 -47 325
-18 432 14 49 56 98 84 98 18 0 25 -11 41 -57z m-3225 17 c0 -5 -2 -10 -4 -10
-3 0 -8 5 -11 10 -3 6 -1 10 4 10 6 0 11 -4 11 -10z m2480 -90 c0 -5 7 -10 15
-10 20 0 19 -6 -5 -30 -15 -15 -20 -16 -20 -6 0 8 -5 16 -11 18 -5 2 -7 11 -4
21 8 18 25 23 25 7z m-264 -20 c12 0 27 -6 33 -14 10 -12 8 -13 -8 -9 -12 3
-28 3 -36 -1 -20 -7 -25 -7 -24 0 0 4 -5 10 -11 14 -7 4 -9 13 -5 20 5 8 10 9
18 1 6 -6 21 -11 33 -11z m-69 -66 c-3 -3 -12 -4 -19 -1 -8 3 -5 6 6 6 11 1
17 -2 13 -5z m-1960 -30 c-3 -3 -12 -4 -19 -1 -8 3 -5 6 6 6 11 1 17 -2 13 -5z
m-937 -74 c0 -5 -4 -10 -10 -10 -5 0 -10 5 -10 10 0 6 5 10 10 10 6 0 10 -4
10 -10z m69 1 c10 -7 7 -9 -12 -8 -14 1 -23 5 -20 10 6 9 15 9 32 -2z m2001
-1 c0 -5 -4 -10 -10 -10 -5 0 -10 5 -10 10 0 6 5 10 10 10 6 0 10 -4 10 -10z
m465 0 c3 -5 -3 -10 -15 -10 -12 0 -18 5 -15 10 3 6 10 10 15 10 5 0 12 -4 15
-10z m620 0 c3 -5 1 -10 -4 -10 -6 0 -11 5 -11 10 0 6 2 10 4 10 3 0 8 -4 11
-10z m-1030 -10 c3 -5 -1 -10 -9 -10 -9 0 -16 5 -16 10 0 6 4 10 9 10 6 0 13
-4 16 -10z m892 4 c-3 -3 -12 -4 -19 -1 -8 3 -5 6 6 6 11 1 17 -2 13 -5z
m-542 -14 c-3 -5 0 -8 7 -5 7 3 27 1 43 -4 l30 -9 -30 -3 c-16 -1 -37 -2 -45
-1 -8 0 -18 -5 -23 -11 -6 -9 -10 -9 -14 1 -2 6 -11 12 -19 12 -9 0 -13 4 -10
9 4 5 1 11 -6 13 -7 3 7 5 30 6 26 1 41 -2 37 -8z m-2515 -15 c0 -8 -7 -15
-15 -15 -9 0 -12 6 -9 15 4 8 10 15 15 15 5 0 9 -7 9 -15z m88 5 c21 0 24 -2
12 -10 -19 -12 -67 -13 -74 -1 -8 12 6 22 22 16 7 -3 26 -5 40 -5z m2186 4
c25 -10 19 -26 -6 -18 -13 4 -36 7 -53 6 -25 -1 -27 0 -10 8 24 11 48 12 69 4z
m155 -30 c3 -4 -4 -3 -16 0 -12 4 -30 3 -40 -3 -21 -11 -73 -3 -73 11 0 6 7 7
15 4 8 -3 22 -9 30 -12 9 -4 15 -3 14 2 -1 5 -1 12 0 16 1 7 60 -8 70 -18z
m-2274 6 c3 -5 -1 -10 -9 -10 -9 0 -16 5 -16 10 0 6 4 10 9 10 6 0 13 -4 16
-10z m2312 -6 c-3 -3 -12 -4 -19 -1 -8 3 -5 6 6 6 11 1 17 -2 13 -5z m-300
-20 c-3 -3 -12 -4 -19 -1 -8 3 -5 6 6 6 11 1 17 -2 13 -5z m-2200 -20 c-3 -3
-12 -4 -19 -1 -8 3 -5 6 6 6 11 1 17 -2 13 -5z m-557 -39 c-7 -9 -15 -13 -17
-11 -7 7 7 26 19 26 6 0 6 -6 -2 -15z m2580 5 c0 -5 -2 -10 -4 -10 -3 0 -8 5
-11 10 -3 6 -1 10 4 10 6 0 11 -4 11 -10z m-2540 -30 c0 -5 -4 -10 -10 -10 -5
0 -10 5 -10 10 0 6 5 10 10 10 6 0 10 -4 10 -10z m-30 -20 c0 -5 -4 -10 -10
-10 -5 0 -10 5 -10 10 0 6 5 10 10 10 6 0 10 -4 10 -10z m-8 -45 c0 -5 -5 -11
-11 -13 -6 -2 -11 4 -11 13 0 9 5 15 11 13 6 -2 11 -8 11 -13z m4467 -41 c28
-47 28 -116 0 -155 -27 -39 -47 -37 -55 6 -6 34 3 162 13 178 9 15 21 6 42
-29z m101 -138 c0 5 13 -13 29 -41 26 -45 29 -57 25 -118 -2 -38 -9 -78 -15
-89 -6 -12 -9 -38 -6 -58 2 -20 2 -67 -2 -104 -5 -44 -4 -66 3 -66 6 0 4 -6
-5 -13 -9 -7 -14 -17 -12 -22 4 -13 -44 -65 -60 -65 -7 0 -19 20 -26 45 -7 25
-22 56 -32 68 -28 37 -42 110 -35 185 4 37 6 90 6 118 -1 53 9 73 73 141 23
25 34 30 44 22 7 -6 13 -8 13 -3z m-4513 -1088 c-3 -8 -6 -5 -6 6 -1 11 2 17
5 13 3 -3 4 -12 1 -19z m73 -228 c0 -5 -2 -10 -4 -10 -3 0 -8 5 -11 10 -3 6
-1 10 4 10 6 0 11 -4 11 -10z m3790 -95 c0 -8 -4 -17 -10 -20 -6 -4 -10 5 -10
20 0 15 4 24 10 20 6 -3 10 -12 10 -20z m-10 -44 c0 -9 -24 -21 -43 -21 -6 0
-2 7 9 15 22 17 34 19 34 6z m-90 -29 c0 -11 -39 -12 -45 -1 -4 5 5 9 19 9 14
0 26 -4 26 -8z m-50 -102 c0 -5 -5 -10 -11 -10 -5 0 -7 5 -4 10 3 6 8 10 11
10 2 0 4 -4 4 -10z m-2480 -1140 c0 -5 -7 -7 -15 -4 -8 4 -12 10 -9 15 6 11
24 2 24 -11z m1580 -460 c0 -5 -7 -10 -16 -10 -8 0 -12 5 -9 10 3 6 10 10 16
10 5 0 9 -4 9 -10z m-60 -40 c0 -5 -7 -10 -16 -10 -8 0 -12 5 -9 10 3 6 10 10
16 10 5 0 9 -4 9 -10z m-650 -10 c0 -5 -4 -10 -10 -10 -5 0 -10 5 -10 10 0 6
5 10 10 10 6 0 10 -4 10 -10z m857 -25 c-4 -8 -14 -15 -23 -15 -16 0 -16 2 1
20 20 22 31 20 22 -5z m-1117 -15 c0 -5 -7 -10 -16 -10 -8 0 -12 5 -9 10 3 6
10 10 16 10 5 0 9 -4 9 -10z m-54 -27 c-10 -10 -19 5 -10 18 6 11 8 11 12 0 2
-7 1 -15 -2 -18z m289 17 c-3 -5 -1 -10 5 -10 6 0 8 -4 5 -10 -9 -15 -19 -12
-33 10 -11 18 -10 20 9 20 11 0 17 -4 14 -10z m-185 -25 c0 -8 -4 -15 -9 -15
-13 0 -22 16 -14 24 11 11 23 6 23 -9z m1190 -6 c0 -4 -9 -9 -20 -12 -12 -3
-20 0 -20 7 0 6 9 12 20 12 11 0 20 -3 20 -7z m-1776 -25 c4 -10 13 -13 25 -9
17 5 87 -27 101 -46 3 -4 25 -13 50 -20 25 -7 50 -16 55 -19 6 -4 31 -13 58
-20 26 -7 47 -16 47 -21 0 -4 8 -8 18 -8 32 0 106 -18 152 -36 25 -9 67 -19
93 -20 27 -2 54 -8 60 -13 14 -11 73 -8 142 7 64 14 333 22 341 10 7 -12 44
-12 44 1 0 6 -10 10 -22 10 l-22 0 22 20 c12 11 29 20 39 20 10 0 42 16 72 35
53 35 81 44 81 25 0 -5 -4 -10 -10 -10 -5 0 -26 -11 -46 -25 -44 -30 -32 -32
38 -5 29 11 61 20 70 20 9 0 21 8 27 18 5 9 12 16 15 15 12 -3 46 10 46 18 0
5 7 9 15 9 8 0 15 -7 15 -15 0 -12 5 -13 27 -4 16 6 35 17 44 25 9 8 40 17 69
19 29 2 55 6 58 9 3 3 10 -1 17 -10 10 -14 15 -14 49 0 48 20 56 20 56 1 0 -8
-8 -16 -17 -17 -10 0 -23 -2 -29 -2 -20 -2 -65 -37 -59 -46 3 -6 -1 -7 -9 -4
-10 4 -16 1 -16 -9 0 -10 9 -14 30 -13 32 2 40 -8 14 -18 -11 -4 -13 -13 -8
-28 9 -31 11 -33 28 -19 11 9 15 8 20 -4 6 -17 36 -21 36 -5 0 5 -9 15 -20 22
-26 17 -25 27 2 37 46 17 80 -39 43 -69 -11 -9 -12 -16 -5 -25 8 -9 8 -14 0
-17 -17 -5 0 -38 20 -38 10 0 20 -9 23 -20 4 -15 -3 -24 -29 -36 -19 -9 -34
-17 -34 -19 0 -1 11 -5 25 -7 13 -3 22 -1 19 3 -3 5 4 9 15 9 10 0 21 6 24 13
2 6 7 9 11 6 4 -4 -5 -19 -20 -34 -22 -22 -24 -29 -13 -37 12 -7 11 -11 -5
-21 -11 -7 -27 -19 -36 -28 -10 -9 -24 -19 -31 -22 -8 -3 -5 -6 8 -6 31 -1 40
-21 9 -21 -14 0 -26 -4 -26 -10 0 -5 9 -10 21 -10 19 0 19 -1 4 -17 -11 -11
-15 -28 -13 -50 3 -23 0 -33 -10 -33 -7 0 -10 -4 -7 -10 3 -5 -1 -10 -10 -10
-9 0 -13 5 -10 11 5 7 -3 9 -21 7 -25 -3 -29 -8 -30 -38 -3 -51 -3 -52 -14
-45 -6 4 -8 11 -4 16 3 6 3 17 0 26 -6 14 -9 13 -26 -5 -11 -12 -17 -28 -14
-36 4 -11 -2 -19 -17 -25 -20 -8 -21 -10 -5 -10 16 -1 17 -3 5 -17 -12 -15
-10 -16 19 -10 17 3 46 9 62 12 17 3 30 1 30 -4 0 -5 -14 -12 -30 -16 -19 -3
-34 -15 -41 -30 -11 -24 -49 -43 -49 -25 0 5 -6 9 -13 9 -7 0 -13 -9 -13 -20
0 -19 12 -24 49 -20 10 1 29 -6 42 -14 30 -20 36 -20 29 -1 -4 8 -2 15 2 15
15 0 30 -14 37 -32 5 -15 9 -16 33 -3 27 14 54 11 54 -7 0 -5 7 -16 15 -25 14
-13 13 -18 -2 -44 -15 -26 -16 -31 -3 -39 8 -5 14 -24 14 -44 0 -26 4 -36 16
-36 20 0 44 19 58 45 10 17 11 18 12 3 0 -10 4 -18 9 -18 14 0 25 21 15 29
-13 9 -12 49 1 55 7 2 10 -6 7 -25 -3 -17 0 -29 7 -29 6 0 10 5 9 11 -2 6 5
13 15 14 28 5 20 -22 -19 -61 -20 -21 -33 -43 -30 -51 3 -8 11 -11 17 -7 8 4
9 -3 4 -27 -7 -29 -6 -32 7 -21 13 11 16 6 21 -35 3 -27 1 -53 -3 -58 -5 -6
-29 -16 -54 -24 -25 -7 -46 -18 -46 -23 0 -5 -6 -8 -12 -6 -7 3 -19 -1 -26 -9
-7 -7 -22 -13 -33 -13 -11 0 -17 -4 -14 -10 3 -5 -7 -12 -22 -16 -15 -4 -33
-11 -40 -16 -7 -5 -38 -16 -70 -23 -32 -7 -85 -23 -118 -34 -33 -12 -80 -24
-104 -27 -25 -3 -48 -7 -51 -9 -3 -2 -68 -11 -144 -20 -179 -21 -525 -21 -666
-1 -58 8 -139 18 -180 21 -41 4 -100 13 -130 22 -30 8 -80 21 -110 28 -111 26
-321 98 -354 120 -11 8 -30 15 -41 15 -11 0 -42 11 -69 25 -27 14 -58 25 -68
25 -31 0 -67 29 -63 50 2 13 -7 27 -25 40 -20 14 -29 29 -27 43 1 16 -4 23
-22 25 -18 3 -22 0 -18 -12 5 -13 2 -13 -20 -3 -21 9 -23 13 -10 15 10 2 15 8
12 13 -4 5 -1 9 4 9 6 0 11 5 11 10 0 6 -9 10 -19 10 -10 0 -21 7 -25 15 -5
13 -2 14 15 4 12 -6 19 -7 16 -2 -3 5 7 24 24 42 30 33 33 55 4 31 -21 -17
-27 -9 -31 45 -3 39 0 47 21 61 13 9 29 13 35 9 5 -3 10 -1 10 5 0 7 7 10 15
6 8 -3 15 -1 15 4 0 6 5 10 10 10 6 0 10 -6 10 -13 0 -16 30 -19 48 -4 8 6 12
6 12 -2 0 -13 59 -12 77 2 12 9 11 96 -2 117 -3 6 -3 15 0 21 4 6 17 -1 32
-18 22 -25 24 -25 13 -4 -7 13 -9 37 -6 55 6 27 2 35 -26 58 -18 14 -30 30
-26 34 4 4 14 1 23 -6 25 -21 27 -5 4 34 -18 32 -19 36 -4 36 9 0 24 -7 33
-16 10 -11 17 -13 20 -5 5 15 31 14 62 -2 27 -13 70 -11 70 4 0 8 -6 10 -50
14 -18 1 -72 36 -66 42 2 3 -4 13 -15 24 -26 26 -24 49 4 50 21 1 21 2 -3 9
-54 15 -70 23 -70 31 0 5 -7 9 -15 9 -8 0 -15 7 -15 15 0 17 16 20 25 5 10
-16 22 -12 28 10 4 16 11 19 30 15 20 -5 29 -1 42 18 15 24 36 29 51 14 4 -4
18 3 31 15 16 15 23 17 23 7 0 -12 2 -11 10 1 13 20 13 33 0 25 -5 -3 -10 -2
-10 4 0 5 -2 16 -5 24 -4 10 4 14 31 15 45 2 59 12 16 12 -17 0 -33 3 -35 8
-3 4 20 6 51 5 32 -1 46 1 33 4 -27 5 -71 49 -71 70 0 7 -10 17 -22 22 l-23 8
23 7 c12 4 22 12 22 17 0 6 -4 7 -10 4 -6 -3 -7 1 -4 9 8 20 20 20 28 0z m496
-24 c0 -5 -4 -10 -10 -10 -5 0 -10 5 -10 10 0 6 5 10 10 10 6 0 10 -4 10 -10z
m126 -22 c5 -8 2 -9 -11 -4 -11 4 -21 2 -26 -5 -4 -6 -12 -8 -18 -5 -6 4 -9
12 -6 17 9 13 52 11 61 -3z m276 5 c-28 -3 -42 -8 -39 -16 2 -7 14 -11 26 -10
11 2 21 0 21 -3 0 -12 -26 -29 -45 -29 -11 0 -25 -6 -31 -14 -15 -19 -34 -6
-34 24 0 14 7 25 18 28 12 3 10 5 -8 7 -35 4 42 17 95 17 l40 0 -43 -4z m-160
-14 c-13 -5 -21 -13 -17 -18 3 -6 13 -7 22 -4 10 4 14 2 12 -6 -3 -7 -8 -12
-12 -12 -4 1 -16 1 -27 1 -13 0 -17 5 -14 14 7 20 -36 33 -47 15 -7 -11 -9
-10 -9 4 0 14 9 17 58 16 45 0 52 -2 34 -10z m68 -83 c0 -3 -4 -8 -10 -11 -5
-3 -10 -1 -10 4 0 6 5 11 10 11 6 0 10 -2 10 -4z m-940 -61 c0 -14 -4 -25 -10
-25 -5 0 -10 4 -10 9 0 5 -3 16 -6 25 -4 11 -1 16 10 16 10 0 16 -9 16 -25z
m-110 -14 c0 -7 -6 -11 -15 -8 -11 5 -12 1 -5 -19 13 -32 12 -43 0 -24 -6 10
-10 11 -10 3 0 -7 -7 -13 -15 -13 -17 0 -20 16 -5 25 12 7 -22 42 -47 47 -10
3 8 4 39 4 42 -1 58 -5 58 -15z m980 9 c-19 -13 -30 -13 -30 0 0 6 10 10 23
10 18 0 19 -2 7 -10z m-942 -38 c2 -7 -2 -10 -12 -6 -9 3 -16 11 -16 16 0 13
23 5 28 -10z m2162 -57 c0 -22 -2 -24 -19 -13 -21 13 -17 38 5 38 8 0 14 -10
14 -25z m-2300 -85 c0 -5 -2 -10 -4 -10 -3 0 -8 5 -11 10 -3 6 -1 10 4 10 6 0
11 -4 11 -10z m2156 -387 c-10 -10 -19 5 -10 18 6 11 8 11 12 0 2 -7 1 -15 -2
-18z m28 -57 c-6 -15 -34 -30 -42 -22 -10 11 9 36 27 36 14 0 19 -5 15 -14z
m-2369 -25 c-3 -6 -14 -10 -23 -10 -15 1 -15 2 1 6 9 2 17 9 17 15 0 6 3 9 6
5 3 -3 3 -10 -1 -16z m2709 -66 c-4 -8 -12 -15 -20 -15 -8 0 -11 6 -8 15 4 8
12 15 20 15 8 0 11 -6 8 -15z m-2674 -19 c0 -11 -19 -15 -25 -6 -3 5 1 10 9
10 9 0 16 -2 16 -4z m2617 -32 c-9 -9 -28 6 -21 18 4 6 10 6 17 -1 6 -6 8 -13
4 -17z m-147 6 c0 -5 -5 -10 -11 -10 -5 0 -7 5 -4 10 3 6 8 10 11 10 2 0 4 -4
4 -10z m-10 -30 c0 -5 -14 -10 -31 -10 -17 0 -28 4 -24 10 3 6 17 10 31 10 13
0 24 -4 24 -10z m-2390 -100 c0 -5 -2 -10 -4 -10 -3 0 -8 5 -11 10 -3 6 -1 10
4 10 6 0 11 -4 11 -10z m2580 -46 c12 -30 -3 -57 -28 -52 -21 4 -23 36 -4 58
22 24 21 24 32 -6z m-70 -84 c0 -21 -25 -4 -28 20 -4 21 -2 22 12 7 9 -8 16
-21 16 -27z"/>
<path d="M5420 8450 c0 -5 7 -10 15 -10 8 0 15 5 15 10 0 6 -7 10 -15 10 -8 0
-15 -4 -15 -10z"/>
<path d="M5465 8429 c-45 -7 -45 -8 6 -15 21 -3 40 -1 43 5 9 15 -5 18 -49 10z"/>
<path d="M4670 8370 c-9 -6 -10 -10 -3 -10 6 0 15 5 18 10 8 12 4 12 -15 0z"/>
<path d="M5635 8360 c-3 -5 -2 -10 4 -10 5 0 13 5 16 10 3 6 2 10 -4 10 -5 0
-13 -4 -16 -10z"/>
<path d="M5198 8333 c7 -3 16 -2 19 1 4 3 -2 6 -13 5 -11 0 -14 -3 -6 -6z"/>
<path d="M5205 8310 c-3 -5 -2 -10 4 -10 5 0 13 5 16 10 3 6 2 10 -4 10 -5 0
-13 -4 -16 -10z"/>
<path d="M5655 8270 c3 -5 8 -10 11 -10 2 0 4 5 4 10 0 6 -5 10 -11 10 -5 0
-7 -4 -4 -10z"/>
<path d="M5760 8259 c-33 -6 -32 -6 13 -8 27 0 47 -6 47 -12 0 -7 10 -9 27 -4
23 5 25 4 14 -9 -9 -11 -10 -16 -2 -16 6 0 11 -10 12 -22 0 -13 3 -17 6 -11 3
10 8 9 20 -3 19 -19 30 -10 13 11 -10 12 -9 15 5 15 14 0 12 4 -9 21 -14 11
-26 26 -26 32 0 13 -62 16 -120 6z"/>
<path d="M5894 8249 c-5 -9 -2 -10 9 -6 9 3 18 2 21 -4 2 -5 3 -4 2 3 -3 17
-23 21 -32 7z"/>
<path d="M4428 8213 c6 -2 18 -2 25 0 6 3 1 5 -13 5 -14 0 -19 -2 -12 -5z"/>
<path d="M4525 8210 c-19 -8 -19 -8 4 -17 l25 -10 -25 -6 c-18 -5 -21 -9 -12
-18 10 -10 16 -8 30 7 18 19 63 22 63 3 0 -18 16 -9 17 10 1 14 -3 18 -14 14
-11 -4 -14 -2 -9 5 4 7 4 13 -1 13 -41 6 -61 6 -78 -1z"/>
<path d="M5818 8203 c7 -3 16 -2 19 1 4 3 -2 6 -13 5 -11 0 -14 -3 -6 -6z"/>
<path d="M4492 8160 c0 -14 2 -19 5 -12 2 6 2 18 0 25 -3 6 -5 1 -5 -13z"/>
<path d="M4320 8090 c0 -13 18 -22 24 -11 3 5 -1 11 -9 15 -8 3 -15 1 -15 -4z"/>
<path d="M4277 8079 c-9 -6 -15 -14 -12 -20 10 -15 22 -10 28 11 3 11 4 20 4
20 -1 0 -10 -5 -20 -11z"/>
<path d="M6210 7860 c0 -5 -8 -10 -17 -10 -15 0 -16 -2 -3 -10 20 -13 33 -13
25 0 -3 6 1 10 10 10 9 0 13 5 10 10 -3 6 -10 10 -16 10 -5 0 -9 -4 -9 -10z"/>
<path d="M4210 7770 c0 -5 5 -10 10 -10 6 0 10 5 10 10 0 6 -4 10 -10 10 -5 0
-10 -4 -10 -10z"/>
<path d="M4248 7743 c6 -2 18 -2 25 0 6 3 1 5 -13 5 -14 0 -19 -2 -12 -5z"/>
<path d="M6168 7713 c7 -3 16 -2 19 1 4 3 -2 6 -13 5 -11 0 -14 -3 -6 -6z"/>
<path d="M6278 7703 c7 -3 16 -2 19 1 4 3 -2 6 -13 5 -11 0 -14 -3 -6 -6z"/>
<path d="M6308 7663 c6 -2 12 -9 12 -14 0 -6 -6 -7 -12 -3 -10 5 -10 4 -1 -6
16 -18 38 -3 22 16 -6 8 -17 14 -23 13 -7 0 -6 -2 2 -6z"/>
<path d="M4210 7640 c0 -5 4 -10 9 -10 6 0 13 5 16 10 3 6 -1 10 -9 10 -9 0
-16 -4 -16 -10z"/>
<path d="M6247 7632 c4 -9 9 -9 18 -2 6 5 15 7 18 3 4 -3 7 -2 7 4 0 6 -11 10
-24 9 -14 0 -22 -6 -19 -14z"/>
<path d="M4241 7434 c0 -11 3 -14 6 -6 3 7 2 16 -1 19 -3 4 -6 -2 -5 -13z"/>
<path d="M6005 7440 c-3 -5 1 -10 9 -10 9 0 16 5 16 10 0 6 -4 10 -9 10 -6 0
-13 -4 -16 -10z"/>
<path d="M6160 7440 c0 -5 9 -10 19 -10 11 0 28 -3 38 -7 16 -6 16 -5 4 10
-14 18 -61 23 -61 7z"/>
<path d="M4492 7415 c-17 -37 -14 -45 4 -12 9 16 14 31 11 33 -2 2 -9 -7 -15
-21z"/>
<path d="M4220 7385 c0 -8 4 -15 10 -15 5 0 7 7 4 15 -4 8 -8 15 -10 15 -2 0
-4 -7 -4 -15z"/>
<path d="M6308 7063 c7 -3 16 -2 19 1 4 3 -2 6 -13 5 -11 0 -14 -3 -6 -6z"/>
<path d="M4130 7004 c0 -8 5 -12 10 -9 6 3 10 10 10 16 0 5 -4 9 -10 9 -5 0
-10 -7 -10 -16z"/>
<path d="M3990 6680 c-9 -6 -10 -10 -3 -10 6 0 15 5 18 10 8 12 4 12 -15 0z"/>
<path d="M5676 6517 c3 -10 9 -15 12 -12 3 3 0 11 -7 18 -10 9 -11 8 -5 -6z"/>
<path d="M5792 6500 c-18 -29 -15 -38 4 -12 9 13 14 25 12 27 -2 2 -9 -5 -16
-15z"/>
<path d="M4625 6501 c4 -3 24 -6 45 -6 21 0 36 2 34 5 -3 3 -23 5 -45 6 -22 1
-37 -1 -34 -5z"/>
<path d="M4737 6468 c19 -22 31 -24 13 -3 -8 9 -9 15 -2 15 6 0 14 -4 17 -10
3 -5 11 -10 18 -10 6 0 3 6 -8 14 -11 7 -28 13 -38 13 -16 0 -16 -2 0 -19z"/>
<path d="M5550 6467 c12 -10 100 -35 100 -27 0 4 -8 11 -17 15 -22 9 -90 19
-83 12z"/>
<path d="M5518 6430 c20 -12 30 -25 26 -32 -4 -7 -3 -8 4 -4 7 4 12 2 12 -4 0
-6 4 -8 10 -5 12 7 -52 65 -71 65 -8 0 1 -9 19 -20z"/>
<path d="M5470 6406 c0 -2 11 -6 25 -8 14 -3 25 -1 25 3 0 5 -11 9 -25 9 -14
0 -25 -2 -25 -4z"/>
<path d="M4756 6374 c7 -46 12 -54 29 -48 8 3 15 2 15 -3 0 -5 7 -18 15 -29
15 -19 15 -19 11 1 -5 33 -18 55 -27 49 -5 -3 -9 1 -9 9 0 8 -9 22 -20 32 -19
17 -19 16 -14 -11z"/>
<path d="M4896 6375 c-3 -8 -1 -15 4 -15 6 0 10 7 10 15 0 8 -2 15 -4 15 -2 0
-6 -7 -10 -15z"/>
<path d="M5585 6370 c3 -5 14 -10 23 -10 15 0 15 2 2 10 -20 13 -33 13 -25 0z"/>
<path d="M5506 6339 c6 -11 52 -17 65 -9 6 4 -6 9 -29 12 -22 2 -39 0 -36 -3z"/>
<path d="M5537 6303 c-21 -11 -21 -11 3 -10 14 0 34 -3 45 -8 11 -4 17 -5 13
0 -4 4 -1 13 7 19 12 9 9 11 -15 11 -17 0 -41 -5 -53 -12z"/>
<path d="M4880 6289 c7 -11 14 -18 17 -15 8 8 -5 36 -17 36 -7 0 -7 -6 0 -21z"/>
<path d="M5550 6245 c-7 -9 -11 -17 -9 -20 3 -2 10 5 17 15 14 24 10 26 -8 5z"/>
<path d="M5570 6230 c0 -5 5 -10 11 -10 5 0 7 5 4 10 -3 6 -8 10 -11 10 -2 0
-4 -4 -4 -10z"/>
<path d="M4952 6200 c0 -14 2 -19 5 -12 2 6 2 18 0 25 -3 6 -5 1 -5 -13z"/>
<path d="M5500 5690 c0 -5 5 -10 11 -10 5 0 7 5 4 10 -3 6 -8 10 -11 10 -2 0
-4 -4 -4 -10z"/>
<path d="M5567 5653 c-12 -11 -7 -23 7 -17 9 3 17 -3 21 -16 4 -12 9 -20 11
-17 3 2 0 16 -5 31 -10 26 -21 32 -34 19z"/>
<path d="M5960 5620 c0 -5 5 -10 11 -10 5 0 7 5 4 10 -3 6 -8 10 -11 10 -2 0
-4 -4 -4 -10z"/>
<path d="M6545 5581 c-3 -5 -1 -12 5 -16 5 -3 10 1 10 9 0 18 -6 21 -15 7z"/>
<path d="M3468 5573 c7 -3 16 -2 19 1 4 3 -2 6 -13 5 -11 0 -14 -3 -6 -6z"/>
<path d="M4828 5493 c7 -3 16 -2 19 1 4 3 -2 6 -13 5 -11 0 -14 -3 -6 -6z"/>
<path d="M4874 5475 c-31 -29 -44 -32 -44 -9 0 14 -5 13 -32 -5 -18 -11 -32
-27 -32 -35 1 -9 -4 -12 -13 -9 -9 4 -20 -1 -25 -10 -5 -10 -16 -17 -23 -17
-8 0 -15 -4 -15 -9 0 -4 -20 -14 -45 -21 -25 -7 -45 -19 -45 -26 0 -8 -7 -14
-15 -14 -8 0 -29 -13 -47 -29 -19 -16 -42 -31 -53 -33 -27 -4 -48 -27 -80 -86
-25 -46 -27 -57 -21 -113 10 -82 38 -151 83 -200 42 -45 124 -88 174 -89 55
-2 142 12 164 26 29 20 76 17 142 -10 32 -13 77 -29 101 -37 23 -7 47 -18 54
-26 6 -8 19 -11 31 -7 11 3 23 1 27 -6 11 -18 87 -22 145 -9 28 7 85 27 128
45 42 17 100 38 127 45 28 7 50 16 50 21 0 23 -130 -4 -240 -49 -8 -3 -17 -7
-20 -7 -3 -1 -12 -5 -20 -11 -17 -11 -189 -14 -210 -4 -8 4 -35 12 -60 19 -25
7 -53 19 -63 28 -9 8 -20 12 -23 9 -4 -3 -23 2 -43 12 -29 15 -54 18 -126 16
-50 -2 -103 -8 -118 -14 -44 -17 -85 -13 -131 12 -22 12 -42 25 -44 30 -2 4
-9 7 -15 7 -15 0 -55 61 -61 92 -2 13 -5 28 -6 33 -1 6 -2 31 -1 58 1 33 5 47
15 47 9 0 12 7 9 20 -7 25 31 59 67 60 14 1 19 4 13 7 -19 7 -16 23 4 23 9 0
13 3 10 7 -13 13 33 34 75 33 69 -1 82 -2 93 -10 17 -13 55 8 65 36 6 14 19
28 30 31 11 3 20 12 20 19 0 8 4 14 9 14 5 0 12 14 16 30 4 17 11 30 16 30 5
0 9 6 9 14 0 7 12 25 26 39 14 14 23 31 19 36 -3 7 0 8 9 5 9 -3 16 -1 16 5 0
20 -49 11 -76 -14z"/>
<path d="M3990 5469 c0 -5 5 -7 10 -4 6 3 10 8 10 11 0 2 -4 4 -10 4 -5 0 -10
-5 -10 -11z"/>
<path d="M7310 5440 c0 -5 5 -10 10 -10 6 0 10 5 10 10 0 6 -4 10 -10 10 -5 0
-10 -4 -10 -10z"/>
<path d="M3341 5393 c0 -25 1 -26 9 -8 12 27 12 35 0 35 -5 0 -10 -12 -9 -27z"/>
<path d="M5730 5376 c0 -4 8 -18 17 -33 17 -26 17 -26 -5 -14 -12 6 -22 16
-22 22 0 8 -23 -13 -59 -57 -5 -6 -3 -18 5 -29 8 -10 14 -15 14 -11 0 5 6 3
13 -3 11 -8 16 -5 25 14 7 15 8 27 2 30 -20 12 -10 27 13 20 12 -3 31 -8 42
-9 13 -2 20 -10 19 -23 0 -15 5 -19 22 -17 13 1 28 -4 35 -12 6 -8 20 -14 30
-14 11 0 19 -4 19 -10 0 -5 5 -10 10 -10 14 0 91 -78 81 -82 -5 -2 -3 -25 4
-53 7 -27 10 -52 7 -55 -4 -3 -7 -21 -8 -40 -1 -44 -32 -114 -55 -126 -9 -5
-34 -18 -56 -28 -21 -11 -41 -24 -44 -29 -6 -9 -96 -4 -170 9 -43 7 -60 -10
-34 -34 10 -10 15 -11 11 -4 -5 8 0 12 12 12 15 0 19 -5 15 -18 -6 -23 6 -24
116 -11 46 6 103 19 127 31 85 40 146 135 160 249 3 23 7 47 10 51 3 4 0 8 -5
8 -6 0 -11 21 -11 48 0 26 -6 58 -13 71 -12 25 -127 112 -138 105 -3 -2 -15 3
-25 11 -10 8 -41 15 -67 15 -27 0 -59 7 -72 16 -14 9 -25 13 -25 10z m-36 -75
c3 -5 -1 -11 -9 -14 -9 -4 -12 -1 -8 9 6 16 10 17 17 5z"/>
<path d="M5640 5325 c0 -8 4 -15 10 -15 5 0 7 7 4 15 -4 8 -8 15 -10 15 -2 0
-4 -7 -4 -15z"/>
<path d="M5893 5195 c-17 -19 -16 -35 2 -35 8 0 15 4 15 9 0 5 3 16 6 25 8 20
-7 20 -23 1z"/>
<path d="M7201 5144 c0 -11 3 -14 6 -6 3 7 2 16 -1 19 -3 4 -6 -2 -5 -13z"/>
<path d="M4452 4648 c-7 -7 -18 -13 -25 -13 -7 0 -12 -5 -12 -12 0 -6 -3 -14
-7 -18 -4 -4 -4 -13 -2 -20 3 -8 -6 -21 -20 -31 -25 -16 -28 -16 -46 1 -16 14
-23 16 -32 7 -7 -7 -19 -12 -28 -12 -9 0 -25 -7 -36 -15 -15 -12 -15 -14 -2
-9 28 9 39 -4 25 -29 -6 -12 -16 -25 -22 -29 -6 -5 -4 -12 5 -18 19 -13 33
-13 25 0 -4 6 5 10 19 10 14 0 26 5 26 10 0 6 7 10 15 10 8 0 15 7 15 15 0 8
-7 15 -16 15 -8 0 -12 5 -9 10 8 14 31 13 47 -2 21 -20 145 -8 133 13 -3 4 4
13 15 19 13 7 20 7 20 0 0 -16 14 -12 38 10 12 11 33 20 48 20 23 0 26 -3 22
-25 -4 -17 -1 -25 8 -25 8 0 14 5 14 11 0 6 9 8 20 4 11 -4 20 -2 20 4 0 6 7
8 15 5 16 -7 31 19 20 35 -4 7 -14 3 -27 -9 -23 -21 -51 -29 -30 -8 17 17 15
28 -4 28 -9 0 -12 -5 -8 -12 5 -8 0 -9 -17 -3 -13 4 -35 8 -49 9 -14 1 -31 5
-37 9 -8 5 -13 4 -13 -2 0 -6 -8 -11 -17 -11 -15 0 -16 2 -3 10 8 5 11 12 7
16 -3 4 -13 1 -22 -6 -9 -7 -33 -14 -55 -15 -36 -2 -39 -1 -23 11 15 12 15 13
2 8 -10 -3 -20 0 -25 7 -4 7 -3 10 2 6 5 -3 21 3 34 14 14 10 20 19 15 19 -6
0 -17 -6 -23 -12z m-32 -108 c0 -13 -12 -19 -26 -13 -8 3 -12 8 -9 12 5 10 35
10 35 1z"/>
<path d="M4640 4632 c0 -7 -12 -13 -27 -13 -26 -2 -26 -2 -4 -6 24 -5 50 11
38 24 -4 3 -7 1 -7 -5z"/>
<path d="M4184 4589 c-3 -6 -2 -15 3 -20 5 -5 9 -1 9 11 0 23 -2 24 -12 9z"/>
<path d="M4340 4589 c0 -5 5 -7 10 -4 6 3 10 8 10 11 0 2 -4 4 -10 4 -5 0 -10
-5 -10 -11z"/>
<path d="M4831 4589 c-20 -8 -22 -11 -10 -27 8 -9 20 -21 27 -25 7 -5 10 -12
7 -16 -4 -8 54 -5 62 3 5 5 -26 61 -34 61 -5 0 -12 3 -18 6 -5 4 -21 3 -34 -2z"/>
<path d="M4608 4553 c7 -3 16 -2 19 1 4 3 -2 6 -13 5 -11 0 -14 -3 -6 -6z"/>
<path d="M6040 4535 c-8 -9 -8 -15 -2 -15 12 0 26 19 19 26 -2 2 -10 -2 -17
-11z"/>
<path d="M6280 4524 c0 -8 5 -12 10 -9 6 4 8 11 5 16 -9 14 -15 11 -15 -7z"/>
<path d="M3320 4510 c0 -5 5 -10 10 -10 6 0 10 5 10 10 0 6 -4 10 -10 10 -5 0
-10 -4 -10 -10z"/>
<path d="M6596 4467 c3 -10 9 -15 12 -12 3 3 0 11 -7 18 -10 9 -11 8 -5 -6z"/>
<path d="M3531 4454 c0 -11 3 -14 6 -6 3 7 2 16 -1 19 -3 4 -6 -2 -5 -13z"/>
<path d="M6214 4463 c10 -10 46 -11 46 -1 0 4 -12 8 -27 8 -14 0 -23 -3 -19
-7z"/>
<path d="M4145 4420 c-3 -5 -1 -10 4 -10 6 0 11 5 11 10 0 6 -2 10 -4 10 -3 0
-8 -4 -11 -10z"/>
<path d="M4495 4413 c-11 -3 -25 -10 -32 -15 -7 -5 -17 -7 -22 -4 -5 4 -12 2
-16 -3 -3 -6 -12 -8 -20 -4 -8 3 -23 2 -32 -3 -21 -9 -33 -11 -88 -17 -22 -3
-41 -6 -42 -7 -2 -1 -7 -3 -12 -4 -15 -2 -26 -16 -13 -16 7 0 12 -4 12 -10 0
-18 -60 -6 -66 14 -5 15 -8 16 -15 5 -6 -10 -9 -11 -9 -1 0 6 -9 12 -19 12
-19 0 -21 -10 -7 -41 4 -8 2 -27 -3 -42 -6 -14 -6 -29 -2 -31 5 -3 16 -21 25
-41 11 -22 24 -35 36 -35 11 0 20 -7 20 -16 0 -8 4 -13 9 -10 4 3 19 -3 31
-14 15 -13 18 -20 9 -21 -8 0 -5 -5 8 -11 21 -10 53 -77 53 -111 0 -9 6 -17
14 -17 16 0 26 -21 26 -55 0 -24 43 -60 59 -50 5 3 15 -8 23 -25 7 -16 18 -30
25 -30 6 0 18 -6 25 -13 17 -17 107 -39 145 -36 15 1 35 -1 43 -4 8 -3 29 -8
46 -11 30 -5 32 -3 38 29 6 29 12 35 41 41 18 3 39 3 45 -1 6 -4 18 -1 26 6
10 8 33 10 72 6 63 -7 78 -2 83 28 2 10 15 22 29 26 21 6 22 7 5 9 -11 1 -26
2 -32 1 -7 -1 -13 2 -13 7 0 9 -51 17 -195 28 -38 3 -74 10 -80 15 -5 5 -19 9
-30 9 -30 0 -153 40 -168 54 -7 7 -20 15 -29 19 -28 10 -57 80 -59 141 -2 67
11 88 40 62 22 -20 36 -7 26 24 -5 17 -2 20 25 20 22 0 39 -9 60 -31 l28 -31
7 31 c9 42 29 51 95 39 30 -5 93 -13 140 -18 47 -5 123 -14 170 -19 47 -5 110
-12 140 -15 30 -2 63 -7 73 -11 9 -4 23 -3 30 2 6 5 28 10 47 12 19 1 61 6 92
11 32 5 68 7 80 5 12 -3 49 4 82 14 47 14 96 19 214 20 l153 2 -6 -35 c-9 -45
12 -58 26 -17 6 17 19 33 29 36 22 7 70 -4 70 -15 0 -5 5 -21 10 -36 l11 -28
25 27 c14 15 31 27 39 27 24 0 30 -48 11 -89 l-17 -36 26 33 c26 31 55 43 55
21 0 -19 -60 -71 -75 -65 -8 3 -15 0 -15 -7 0 -23 -19 -41 -42 -42 -13 -1 -34
-8 -48 -17 -14 -9 -42 -19 -63 -23 -31 -5 -42 -3 -52 11 -12 17 -13 17 -19 -2
-9 -28 -35 -41 -143 -69 -54 -14 -103 -32 -109 -40 -6 -8 -15 -15 -19 -15 -4
0 -14 -8 -22 -17 -8 -10 -11 -12 -7 -4 6 11 1 13 -24 8 -39 -8 -40 -2 -4 18
26 15 26 16 2 9 -36 -9 -45 -21 -31 -38 7 -8 9 -21 5 -27 -5 -9 -2 -10 9 -6
35 13 139 28 160 22 20 -5 19 -4 -3 9 -25 15 -25 15 15 12 45 -4 68 4 40 14
-13 5 -15 9 -7 14 8 5 19 -4 30 -23 13 -23 23 -29 39 -26 28 5 37 -8 24 -33
-7 -14 -6 -25 5 -40 15 -21 44 -30 44 -14 0 4 21 14 48 21 111 31 132 42 188
95 32 30 59 60 61 68 1 7 4 22 5 33 4 27 25 48 40 39 10 -5 10 -4 1 6 -13 14
0 48 25 63 6 4 12 15 12 22 0 8 6 15 14 15 8 0 21 8 28 18 23 31 63 51 81 40
11 -6 17 -5 17 2 0 5 12 10 26 10 14 0 23 4 19 10 -3 6 3 10 15 10 12 0 18 4
15 10 -4 6 -1 17 5 25 8 10 9 15 2 15 -6 0 -9 7 -6 15 4 10 0 15 -11 15 -12 0
-15 -6 -10 -22 l6 -23 -17 23 c-10 14 -27 22 -45 22 -22 0 -32 7 -41 25 -12
26 -34 36 -24 10 3 -8 0 -15 -7 -15 -9 0 -8 -3 1 -9 10 -6 9 -10 -7 -14 -16
-4 -21 0 -21 16 0 16 -3 18 -9 9 -6 -11 -20 -10 -69 4 -34 10 -62 22 -62 27 0
5 -6 7 -14 4 -8 -3 -16 -1 -18 5 -5 13 -48 19 -48 7 0 -4 -16 -3 -35 1 -25 6
-38 4 -46 -6 -12 -15 -41 -19 -53 -7 -11 11 -50 11 -65 -1 -11 -8 -15 -8 -18
1 -3 8 -12 9 -27 3 -13 -4 -29 -4 -37 0 -7 5 -25 6 -38 3 -15 -4 -22 -2 -18 4
4 6 -3 10 -16 9 -15 -1 -21 -7 -20 -21 1 -20 1 -20 -13 -1 -8 11 -14 15 -14 9
0 -6 -10 -9 -22 -7 -13 2 -17 2 -10 -2 17 -8 15 -24 -3 -24 -8 0 -15 3 -15 8
0 4 -18 7 -40 7 -22 1 -40 -3 -40 -8 0 -5 -7 -3 -16 4 -15 12 -19 11 -32 -9
-8 -12 -23 -22 -33 -22 -11 0 -19 -4 -19 -8 0 -4 -27 -8 -60 -8 -56 1 -77 9
-48 18 7 3 -10 5 -37 5 -46 1 -47 0 -15 -7 33 -7 17 -15 -20 -10 -10 1 -9 -3
5 -14 l20 -15 -20 -1 c-17 0 -17 -2 -5 -10 11 -7 7 -10 -18 -10 -20 0 -31 4
-27 10 3 6 -1 10 -9 10 -9 0 -16 7 -16 16 0 11 -5 14 -17 10 -9 -4 -19 -2 -23
4 -4 7 -27 14 -51 17 -66 7 -77 12 -59 24 12 8 10 9 -7 4 -25 -7 -95 4 -89 14
2 3 -2 12 -10 19 -12 11 -14 9 -14 -10 0 -17 -3 -19 -9 -9 -6 9 -11 10 -15 2
-11 -17 -24 -13 -22 5 2 23 -21 29 -27 7 -4 -16 -5 -16 -6 -1 -1 11 -6 15 -16
12 -8 -4 -17 1 -21 9 -4 12 -21 14 -87 11 -158 -9 -219 -9 -224 -1 -4 7 -7 7
-38 0z m680 -113 c3 -5 1 -10 -4 -10 -6 0 -11 5 -11 10 0 6 2 10 4 10 3 0 8
-4 11 -10z m183 -25 c-3 -3 -9 2 -12 12 -6 14 -5 15 5 6 7 -7 10 -15 7 -18z
m-188 -1 c0 -2 -7 -4 -15 -4 -8 0 -15 4 -15 10 0 5 7 7 15 4 8 -4 15 -8 15
-10z m170 -4 c0 -5 -5 -10 -11 -10 -5 0 -7 5 -4 10 3 6 8 10 11 10 2 0 4 -4 4
-10z m890 -190 c12 -8 11 -10 -7 -10 -13 0 -23 5 -23 10 0 13 11 13 30 0z
m-1243 -246 c-3 -3 -12 -4 -19 -1 -8 3 -5 6 6 6 11 1 17 -2 13 -5z"/>
<path d="M4078 4393 c7 -3 16 -2 19 1 4 3 -2 6 -13 5 -11 0 -14 -3 -6 -6z"/>
<path d="M4130 4390 c0 -6 7 -10 15 -10 8 0 15 2 15 4 0 2 -7 6 -15 10 -8 3
-15 1 -15 -4z"/>
<path d="M4065 4360 c-3 -5 -1 -10 4 -10 6 0 11 5 11 10 0 6 -2 10 -4 10 -3 0
-8 -4 -11 -10z"/>
<path d="M6467 4349 c7 -7 15 -10 18 -7 3 3 -2 9 -12 12 -14 6 -15 5 -6 -5z"/>
<path d="M7034 4259 c-3 -6 -1 -16 5 -22 8 -8 11 -5 11 11 0 24 -5 28 -16 11z"/>
<path d="M7247 4233 c-4 -3 -7 -11 -7 -17 0 -6 5 -5 12 2 6 6 9 14 7 17 -3 3
-9 2 -12 -2z"/>
<path d="M7236 4187 c3 -10 9 -15 12 -12 3 3 0 11 -7 18 -10 9 -11 8 -5 -6z"/>
<path d="M3946 4132 c-9 -8 35 -63 45 -57 17 11 9 40 -16 51 -13 7 -26 9 -29
6z"/>
<path d="M3435 4120 c3 -5 8 -10 11 -10 2 0 4 5 4 10 0 6 -5 10 -11 10 -5 0
-7 -4 -4 -10z"/>
<path d="M7240 4100 c0 -5 5 -10 10 -10 6 0 10 5 10 10 0 6 -4 10 -10 10 -5 0
-10 -4 -10 -10z"/>
<path d="M3446 4064 c-8 -30 -8 -29 22 -38 22 -7 31 7 12 19 -5 3 -10 15 -10
26 0 28 -17 23 -24 -7z"/>
<path d="M3450 4000 c0 -5 5 -10 10 -10 6 0 10 5 10 10 0 6 -4 10 -10 10 -5 0
-10 -4 -10 -10z"/>
<path d="M3510 3909 c0 -5 5 -7 10 -4 6 3 10 8 10 11 0 2 -4 4 -10 4 -5 0 -10
-5 -10 -11z"/>
<path d="M5225 3860 c-7 -23 -21 -26 -28 -7 -4 10 -6 10 -6 0 -1 -7 -9 -13
-18 -14 -11 0 -7 -4 10 -11 22 -8 32 -7 46 6 22 20 35 21 28 1 -7 -17 11 -31
24 -18 6 6 1 20 -14 36 -27 32 -34 33 -42 7z"/>
<path d="M5300 3842 c0 -4 9 -8 20 -8 11 0 20 4 20 8 0 4 -9 8 -20 8 -11 0
-20 -4 -20 -8z"/>
<path d="M5050 3831 c0 -5 -8 -12 -17 -14 -14 -4 -13 -5 3 -6 12 0 24 6 28 14
3 8 1 15 -4 15 -6 0 -10 -4 -10 -9z"/>
<path d="M5780 3830 c0 -5 7 -10 16 -10 8 0 12 5 9 10 -3 6 -10 10 -16 10 -5
0 -9 -4 -9 -10z"/>
<path d="M3585 3790 c-3 -5 -1 -10 4 -10 6 0 11 5 11 10 0 6 -2 10 -4 10 -3 0
-8 -4 -11 -10z"/>
<path d="M3615 3681 c-7 -12 12 -24 25 -16 11 7 4 25 -10 25 -5 0 -11 -4 -15
-9z"/>
<path d="M4390 3546 c0 -18 27 -39 40 -31 5 3 10 15 10 26 0 14 -7 19 -25 19
-15 0 -25 -6 -25 -14z"/>
<path d="M6276 3212 c-3 -5 1 -15 9 -22 16 -14 20 -3 6 19 -5 8 -11 9 -15 3z"/>
<path d="M4435 2841 c-3 -5 -1 -12 4 -15 5 -3 11 1 15 9 6 16 -9 21 -19 6z"/>
<path d="M4351 2804 c0 -11 3 -14 6 -6 3 7 2 16 -1 19 -3 4 -6 -2 -5 -13z"/>
<path d="M4610 2709 c0 -5 5 -7 10 -4 6 3 10 8 10 11 0 2 -4 4 -10 4 -5 0 -10
-5 -10 -11z"/>
<path d="M5670 2585 c0 -8 2 -15 4 -15 2 0 6 7 10 15 3 8 1 15 -4 15 -6 0 -10
-7 -10 -15z"/>
<path d="M6678 6373 c7 -3 16 -2 19 1 4 3 -2 6 -13 5 -11 0 -14 -3 -6 -6z"/>
<path d="M6050 6320 c0 -5 4 -10 9 -10 6 0 13 5 16 10 3 6 -1 10 -9 10 -9 0
-16 -4 -16 -10z"/>
<path d="M6520 6310 c36 -11 50 -11 50 0 0 6 -17 10 -37 9 -34 -1 -35 -2 -13
-9z"/>
<path d="M6618 6303 c7 -3 16 -2 19 1 4 3 -2 6 -13 5 -11 0 -14 -3 -6 -6z"/>
<path d="M6880 6205 c0 -8 4 -15 10 -15 5 0 7 7 4 15 -4 8 -8 15 -10 15 -2 0
-4 -7 -4 -15z"/>
<path d="M6920 6206 c0 -2 9 -6 20 -9 11 -3 18 -1 14 4 -5 9 -34 13 -34 5z"/>
<path d="M4248 6323 c7 -3 16 -2 19 1 4 3 -2 6 -13 5 -11 0 -14 -3 -6 -6z"/>
<path d="M4000 6316 c0 -2 11 -6 25 -8 13 -3 22 -1 19 3 -5 9 -44 13 -44 5z"/>
<path d="M4366 6296 c2 -6 13 -12 23 -12 24 0 16 21 -9 23 -11 1 -17 -3 -14
-11z"/>
<path d="M3778 6283 c7 -3 16 -2 19 1 4 3 -2 6 -13 5 -11 0 -14 -3 -6 -6z"/>
<path d="M3608 6263 c7 -3 16 -2 19 1 4 3 -2 6 -13 5 -11 0 -14 -3 -6 -6z"/>
<path d="M6270 1810 c0 -5 5 -10 10 -10 6 0 10 5 10 10 0 6 -4 10 -10 10 -5 0
-10 -4 -10 -10z"/>
<path d="M5865 1770 c-3 -5 1 -10 10 -10 9 0 13 5 10 10 -3 6 -8 10 -10 10 -2
0 -7 -4 -10 -10z"/>
<path d="M4714 1743 c4 -8 1 -13 -8 -13 -9 0 -16 -8 -16 -19 0 -23 25 -47 35
-31 3 5 1 10 -4 10 -6 0 -11 7 -11 16 0 8 4 13 9 10 11 -7 8 21 -4 31 -4 4 -5
2 -1 -4z"/>
<path d="M4800 1731 c0 -5 -10 -7 -22 -4 -23 5 -23 5 -3 -10 11 -9 21 -11 23
-6 2 5 13 7 25 5 12 -1 16 -1 10 1 -7 3 -13 9 -13 14 0 5 -4 9 -10 9 -5 0 -10
-4 -10 -9z"/>
<path d="M5176 1731 c-4 -5 -2 -12 3 -15 5 -4 12 -2 15 3 4 5 2 12 -3 15 -5 4
-12 2 -15 -3z"/>
<path d="M5115 1719 c-4 -5 -1 -8 7 -7 9 2 12 -6 10 -24 -2 -24 1 -28 22 -28
13 0 32 -3 42 -7 12 -4 15 -2 12 8 -3 8 -13 14 -24 14 -10 0 -23 10 -29 22
-11 26 -31 37 -40 22z"/>
<path d="M4750 1670 c0 -5 5 -10 10 -10 6 0 10 5 10 10 0 6 -4 10 -10 10 -5 0
-10 -4 -10 -10z"/>
<path d="M5411 1654 c0 -11 3 -14 6 -6 3 7 2 16 -1 19 -3 4 -6 -2 -5 -13z"/>
<path d="M6506 1625 c4 -8 10 -12 15 -9 11 6 2 24 -11 24 -5 0 -7 -7 -4 -15z"/>
<path d="M5052 1619 c2 -7 10 -15 17 -17 8 -3 12 1 9 9 -2 7 -10 15 -17 17 -8
3 -12 -1 -9 -9z"/>
<path d="M5136 1593 c5 -29 4 -34 -7 -28 -8 5 -11 4 -6 -1 10 -11 77 -13 77
-2 0 4 -6 8 -12 8 -7 1 -2 7 12 16 14 8 18 14 10 13 -32 -3 -50 2 -47 12 1 6
-6 13 -16 14 -15 3 -17 -2 -11 -32z m34 -13 c0 -5 -4 -10 -10 -10 -5 0 -10 5
-10 10 0 6 5 10 10 10 6 0 10 -4 10 -10z"/>
<path d="M5215 1560 c-3 -6 1 -7 9 -4 18 7 21 14 7 14 -6 0 -13 -4 -16 -10z"/>
<path d="M4770 1342 c0 -13 12 -22 43 -31 23 -7 51 -19 63 -26 26 -17 53 -21
80 -12 12 4 36 1 58 -8 20 -9 42 -12 49 -8 7 4 -10 14 -43 23 -34 11 -60 13
-67 8 -15 -12 -55 13 -48 30 2 7 -1 12 -8 11 -6 -1 -29 5 -49 14 -50 23 -78
22 -78 -1z"/>
<path d="M4920 1310 c0 -5 4 -10 9 -10 6 0 13 5 16 10 3 6 -1 10 -9 10 -9 0
-16 -4 -16 -10z"/>
<path d="M5086 1265 c4 -8 16 -15 28 -15 21 1 21 1 2 15 -25 19 -37 19 -30 0z"/>
<path d="M4465 1170 c-3 -5 1 -10 10 -10 9 0 13 5 10 10 -3 6 -8 10 -10 10 -2
0 -7 -4 -10 -10z"/>
<path d="M4262 1088 c-14 -14 -16 -28 -3 -28 9 0 24 30 18 36 -2 2 -9 -2 -15
-8z"/>
<path d="M6460 930 c0 -5 5 -10 11 -10 5 0 7 5 4 10 -3 6 -8 10 -11 10 -2 0
-4 -4 -4 -10z"/>
<path d="M4270 830 c-9 -6 -10 -10 -3 -10 6 0 15 5 18 10 8 12 4 12 -15 0z"/>
<path d="M6425 810 c-3 -5 -1 -10 4 -10 6 0 11 5 11 10 0 6 -2 10 -4 10 -3 0
-8 -4 -11 -10z"/>
<path d="M4885 10250 c-8 -13 5 -13 25 0 13 8 13 10 -2 10 -9 0 -20 -4 -23
-10z"/>
<path d="M3160 9830 c-9 -6 -10 -10 -3 -10 6 0 15 5 18 10 8 12 4 12 -15 0z"/>
<path d="M2370 6696 c0 -2 8 -10 18 -17 15 -13 16 -12 3 4 -13 16 -21 21 -21
13z"/>
<path d="M2827 5833 c-10 -9 -8 -43 2 -43 5 0 11 11 13 25 5 24 -2 32 -15 18z"/>
<path d="M2997 5392 c-21 -23 -15 -31 18 -24 16 3 25 11 25 23 0 24 -22 24
-43 1z"/>
<path d="M2840 5344 c0 -8 5 -12 10 -9 6 4 8 11 5 16 -9 14 -15 11 -15 -7z"/>
<path d="M2870 5283 c0 -10 4 -24 9 -32 7 -11 10 -9 16 8 7 22 0 41 -16 41 -5
0 -9 -8 -9 -17z"/>
</g>
</svg>
